<?xml version="1.0" standalone="no"?>
<!DOCTYPE svg PUBLIC "-//W3C//DTD SVG 20010904//EN"
 "http://www.w3.org/TR/2001/REC-SVG-20010904/DTD/svg10.dtd">
<svg version="1.0" xmlns="http://www.w3.org/2000/svg"
 width="218.000000pt" height="159.000000pt" viewBox="0 0 218.000000 159.000000"
 preserveAspectRatio="xMidYMid meet">
<metadata>
Created by potrace 1.16, written by Peter Selinger 2001-2019
</metadata>
<g transform="translate(0.000000,159.000000) scale(0.100000,-0.100000)"
fill="#000000" stroke="none">
<path d="M747 1409 c-10 -221 -9 -291 5 -287 21 7 26 47 27 220 1 92 5 169 9
172 8 5 261 -10 267 -16 4 -4 14 -143 15 -206 l0 -52 68 -32 c44 -21 84 -33
115 -34 33 0 58 -8 79 -24 29 -21 37 -22 137 -17 58 3 120 11 136 17 26 9 41
6 90 -14 l60 -24 3 -110 c2 -101 4 -111 27 -132 18 -17 25 -34 25 -62 0 -27 4
-38 15 -38 19 0 20 -60 4 -127 -11 -41 -17 -48 -63 -69 -29 -13 -65 -38 -81
-55 -17 -17 -63 -49 -102 -71 -96 -53 -156 -122 -171 -198 -9 -52 -4 -130 13
-172 12 -30 -56 -22 -128 13 -60 30 -64 34 -86 93 -13 34 -40 79 -61 101 -21
22 -57 78 -80 125 -24 47 -59 104 -78 128 l-35 43 -90 -3 -90 -3 -15 -43 c-17
-52 -35 -62 -65 -35 -12 11 -43 33 -69 48 -56 31 -63 40 -60 76 3 36 -53 117
-105 152 -24 16 -43 34 -43 40 0 7 -17 27 -37 45 l-38 33 210 -3 210 -3 3 102
c2 89 1 102 -13 97 -12 -5 -15 -23 -15 -86 l0 -79 -207 2 -208 2 -3 -30 c-2
-25 4 -36 31 -59 19 -16 38 -39 41 -51 4 -12 16 -25 27 -28 54 -17 109 -90
109 -143 0 -37 30 -67 130 -132 83 -55 87 -54 122 14 27 53 32 56 100 56 51 0
59 -3 83 -32 14 -17 47 -72 72 -122 25 -50 62 -109 82 -131 21 -22 50 -70 65
-106 26 -63 30 -67 92 -97 52 -26 77 -32 129 -32 35 0 67 4 70 10 3 5 -2 24
-12 42 -12 23 -17 57 -18 114 0 82 0 82 41 130 23 27 73 67 115 92 41 24 89
58 106 75 18 17 56 42 85 56 50 25 53 29 70 86 10 33 18 82 18 108 0 41 -3 50
-20 54 -15 4 -20 14 -20 36 0 17 -9 40 -21 53 -17 18 -21 39 -26 133 -3 63
-11 115 -17 119 -6 4 -40 19 -76 33 -60 25 -68 26 -99 13 -21 -9 -71 -14 -136
-14 -87 0 -106 3 -128 20 -17 14 -40 20 -74 20 -32 0 -67 9 -105 27 l-58 27 0
128 c0 111 -2 128 -17 137 -10 5 -88 12 -174 16 l-156 7 -6 -143z"/>
</g>
</svg>
