<?xml version="1.0" standalone="no"?>
<!DOCTYPE svg PUBLIC "-//W3C//DTD SVG 20010904//EN"
 "http://www.w3.org/TR/2001/REC-SVG-20010904/DTD/svg10.dtd">
<svg version="1.0" xmlns="http://www.w3.org/2000/svg"
 width="466.000000pt" height="454.000000pt" viewBox="0 0 466.000000 454.000000"
 preserveAspectRatio="xMidYMid meet">
<metadata>
Created by potrace 1.16, written by Peter Selinger 2001-2019
</metadata>
<g transform="translate(0.000000,454.000000) scale(0.100000,-0.100000)"
fill="#000000" stroke="none">
<path d="M2110 4479 c-493 -50 -968 -272 -1324 -618 -618 -602 -833 -1496
-554 -2311 304 -891 1155 -1500 2094 -1500 762 0 1460 379 1877 1020 171 264
287 574 333 895 23 161 23 449 0 610 -48 334 -164 638 -346 913 -350 527 -878
868 -1505 973 -141 23 -432 33 -575 18z m480 -304 c738 -105 1336 -601 1569
-1300 132 -397 132 -813 0 -1210 -233 -700 -835 -1198 -1574 -1301 -146 -20
-441 -15 -580 10 -542 98 -1023 423 -1310 887 -118 189 -215 441 -255 659 -28
147 -37 415 -21 560 101 876 782 1576 1651 1695 132 18 392 18 520 0z"/>
<path d="M3687 3413 c-2 -5 0 -21 4 -38 3 -16 7 -24 8 -16 1 11 8 8 23 -9 22
-23 33 -51 20 -48 -4 1 -17 -4 -29 -12 l-23 -15 0 -878 c0 -832 1 -878 18
-873 9 3 36 10 60 15 24 5 45 11 48 13 2 2 4 392 4 866 l1 862 -46 60 c-45 59
-80 88 -88 73z"/>
<path d="M3441 3326 c3 -47 -1 -67 -13 -60 -10 6 -10 4 0 -7 6 -7 12 -25 12
-41 0 -17 -5 -26 -12 -24 -7 1 -10 1 -5 -1 4 -3 4 -10 1 -15 -4 -7 -2 -8 4 -4
7 4 12 3 12 -3 0 -5 -20 -17 -45 -26 l-44 -17 -3 -62 -3 -61 -342 -3 -343 -2
-1 -458 c-1 -251 -1 -465 0 -474 2 -12 -3 -16 -13 -12 -9 3 -16 1 -16 -5 0 -7
7 -14 15 -17 13 -5 15 -47 14 -311 l-1 -304 -71 77 c-81 87 -177 154 -289 205
l-78 34 0 111 0 112 -31 6 c-17 3 -71 6 -120 6 l-89 0 0 155 0 155 -65 0 -65
0 0 75 0 75 -34 0 c-28 0 -36 5 -46 30 -29 70 -135 117 -235 105 -60 -7 -120
-28 -147 -53 -17 -14 -18 1 -18 310 0 289 -2 327 -16 332 -9 3 -143 6 -299 6
l-283 -1 -31 -59 -32 -60 25 0 26 0 0 -146 0 -145 -79 7 -79 6 -16 -73 c-38
-165 -48 -269 -44 -464 4 -152 9 -213 29 -305 l24 -115 3 68 3 67 79 0 80 0 0
-134 0 -134 45 -4 45 -3 0 137 0 138 30 0 30 0 0 -140 0 -139 38 -6 c102 -17
282 -59 304 -71 3 -3 -18 -27 -47 -55 -30 -28 -69 -73 -86 -100 l-31 -50 -132
3 -131 3 -32 60 c-18 33 -47 99 -64 147 -31 81 -35 86 -64 90 l-32 4 29 -76
c127 -329 389 -651 693 -850 170 -111 410 -209 615 -250 182 -37 412 -48 382
-18 -7 7 -3 22 10 44 11 18 17 37 14 43 -3 5 -35 21 -70 37 -53 23 -66 33 -73
58 -7 27 -15 32 -53 39 -25 5 -55 10 -66 13 -12 2 -41 20 -64 39 -23 19 -49
35 -58 35 -21 1 -52 23 -52 38 0 6 10 28 22 48 l22 37 -30 23 c-16 13 -48 32
-71 41 -28 12 -47 28 -54 46 -6 15 -14 27 -18 27 -4 0 -12 14 -18 30 -6 17
-18 30 -27 30 -9 0 -16 5 -16 11 0 6 -9 9 -20 6 -12 -3 -23 1 -29 10 -5 10
-10 12 -15 5 -5 -8 -15 -8 -33 -1 -16 6 -30 6 -37 0 -7 -6 -25 0 -53 19 -77
52 -75 52 -129 16 -33 -22 -55 -31 -65 -26 -8 4 -25 3 -39 -3 -27 -11 -36 -13
-95 -22 -22 -4 -41 -11 -43 -16 -2 -5 -10 -9 -19 -9 -8 0 -13 -6 -10 -12 4
-13 -90 -49 -106 -40 -11 5 -1 74 19 143 l15 49 402 0 c222 0 407 -4 412 -9
10 -9 299 -141 309 -141 3 0 6 34 6 75 l0 75 220 0 c171 0 221 -3 219 -12 -1
-7 -1 -28 0 -45 1 -25 6 -33 20 -33 20 0 31 -34 31 -97 l0 -35 46 26 46 26 -6
-23 c-20 -69 -19 -73 17 -94 37 -22 84 -32 158 -35 l47 -1 -24 -68 c-13 -38
-24 -75 -24 -83 0 -24 142 -76 208 -76 32 0 105 40 215 119 51 35 54 46 31
104 -6 17 -2 18 53 12 l59 -7 100 105 c55 58 106 117 114 132 15 29 18 17 -65
333 l-45 173 0 824 0 823 28 7 27 7 -24 9 c-43 17 -56 5 -54 -50 1 -39 -2 -48
-13 -44 -8 3 -14 0 -14 -6 0 -6 -18 -18 -40 -27 l-40 -16 0 -692 c0 -645 -2
-696 -19 -761 l-19 -70 -1 145 c-7 1010 -5 1500 7 1500 23 0 12 18 -14 23 -21
4 -25 1 -23 -17z m-2431 -431 l0 -145 -80 0 -80 0 0 145 0 145 80 0 80 0 0
-145z m250 0 l0 -145 -80 0 -80 0 0 145 0 145 80 0 80 0 0 -145z m2100 -120
l0 -45 -320 0 -320 0 0 45 0 45 320 0 320 0 0 -45z m-2598 -240 l3 -145 -82 0
-83 0 0 139 0 140 48 3 c26 2 61 4 79 6 l32 3 3 -146z m248 -2 l0 -143 -80 0
-80 0 0 139 c0 84 4 141 10 143 6 2 42 3 80 3 l70 0 0 -142z m250 0 l0 -143
-80 0 -80 0 0 143 0 142 80 1 80 0 0 -143z m2100 -12 l0 -39 -57 -6 c-32 -3
-176 -5 -320 -4 l-263 3 0 43 0 42 320 0 320 0 0 -39z m-2600 -356 l0 -145
-80 0 -80 0 0 145 0 145 80 0 80 0 0 -145z m250 0 l0 -145 -80 0 -80 0 0 145
0 145 80 0 80 0 0 -145z m250 125 c0 -18 -7 -20 -55 -20 l-55 0 0 -125 0 -125
-25 0 -25 0 0 145 0 145 80 0 c73 0 80 -2 80 -20z m2100 -25 l0 -45 -320 0
-320 0 0 45 0 45 320 0 320 0 0 -45z m-1677 6 c4 -1 7 -115 7 -254 l0 -253
-62 -13 c-35 -7 -89 -24 -122 -37 -33 -13 -62 -22 -64 -19 -9 9 -3 568 7 574
7 5 194 6 234 2z m1675 -258 l3 -43 -320 0 -321 0 0 40 0 40 298 3 c163 1 306
2 317 2 16 0 21 -8 23 -42z m0 -255 l-3 -43 -317 -3 -318 -2 0 45 0 45 321 0
320 0 -3 -42z m-1788 -238 l0 -140 -65 0 -65 0 0 55 c0 58 5 64 36 40 33 -25
46 -19 42 23 -3 35 -5 37 -40 40 -36 3 -38 5 -38 37 0 31 3 34 63 58 34 15 63
26 65 27 1 0 2 -63 2 -140z m723 86 c10 -12 16 -15 12 -8 -3 6 -1 12 4 12 7 0
11 -41 11 -115 l0 -115 -50 0 -50 0 0 135 0 135 28 -12 c15 -7 35 -21 45 -32z
m124 -61 c46 -31 52 -40 58 -78 4 -24 5 -55 3 -68 -3 -22 -8 -24 -65 -27 l-63
-3 0 106 c0 58 3 105 8 105 4 0 31 -16 59 -35z m943 -40 l0 -45 -65 0 c-55 0
-65 3 -65 18 -1 16 -1 16 -14 0 -11 -15 -30 -18 -120 -18 l-107 0 -11 31 -11
31 -13 -31 -13 -31 -111 0 -110 0 0 45 0 45 320 0 320 0 0 -45z m-1975 23 c23
-10 25 -16 25 -80 l0 -68 -60 0 -60 0 0 61 c0 51 4 64 23 80 26 22 37 23 72 7z"/>
<path d="M3868 2383 c1 -449 4 -819 7 -821 2 -2 30 0 62 4 l58 9 5 675 5 675
-56 120 c-31 66 -63 128 -70 138 -12 15 -14 -110 -11 -800z"/>
<path d="M1637 2823 c-18 -70 -24 -110 -18 -116 6 -6 31 -10 56 -11 l45 -1 -6
-42 c-6 -40 -4 -43 21 -53 39 -15 89 1 93 28 3 17 10 22 35 22 54 0 56 8 27
88 l-26 72 -18 -50 c-10 -28 -22 -52 -26 -55 -5 -3 -16 26 -26 65 -10 38 -21
70 -25 70 -3 0 -11 -25 -18 -56 -7 -31 -17 -52 -21 -48 -5 5 -19 51 -32 101
-13 51 -25 93 -28 93 -3 0 -18 -48 -33 -107z"/>
<path d="M4045 2781 c3 -18 5 -256 5 -529 0 -272 2 -493 4 -491 12 11 48 176
61 278 25 194 18 398 -21 588 -17 83 -57 208 -49 154z"/>
<path d="M1550 2776 c-46 -122 -54 -156 -42 -168 16 -16 97 -17 113 -1 8 8 5
31 -16 95 -33 99 -41 110 -55 74z"/>
</g>
</svg>
