<?xml version="1.0" standalone="no"?>
<!DOCTYPE svg PUBLIC "-//W3C//DTD SVG 20010904//EN"
 "http://www.w3.org/TR/2001/REC-SVG-20010904/DTD/svg10.dtd">
<svg version="1.0" xmlns="http://www.w3.org/2000/svg"
 width="814.000000pt" height="470.000000pt" viewBox="0 0 814.000000 470.000000"
 preserveAspectRatio="xMidYMid meet">
<metadata>
Created by potrace 1.16, written by Peter Selinger 2001-2019
</metadata>
<g transform="translate(0.000000,470.000000) scale(0.100000,-0.100000)"
fill="#000000" stroke="none">
<path d="M3232 4138 c-16 -16 -15 -43 3 -58 8 -7 15 -28 15 -46 0 -27 -4 -34
-19 -34 -15 0 -21 8 -24 33 l-4 32 -1 -32 c-2 -37 -26 -46 -35 -13 -4 14 -14
20 -36 20 l-30 0 -3 -97 -3 -98 -70 -5 -70 -5 -3 -991 -2 -991 -49 13 c-81 21
-150 -4 -194 -71 -18 -28 -28 -35 -54 -35 -23 0 -33 5 -33 15 0 21 -46 19 -56
-2 -5 -10 -11 433 -14 1022 l-5 1040 -67 3 -67 3 -3 97 -3 97 -33 3 c-27 3
-35 -1 -39 -17 -4 -17 -13 -21 -48 -21 -35 0 -44 4 -50 23 l-8 22 -4 -22 c-2
-13 -11 -23 -19 -23 -10 0 -14 15 -14 59 0 33 -4 63 -10 66 -6 4 -10 -18 -10
-59 0 -50 -3 -66 -14 -66 -7 0 -16 9 -19 21 -4 16 -12 20 -34 17 l-28 -3 -5
-95 -5 -95 -67 -3 -68 -3 0 -753 c0 -414 -3 -875 -7 -1024 l-6 -271 -26 -3
-26 -3 -3 -128 -3 -127 -40 0 c-71 0 -79 -10 -79 -99 0 -75 -1 -79 -20 -74
-21 6 -21 10 -20 572 1 844 3 769 -20 776 -14 4 -20 15 -20 35 0 16 -5 32 -10
35 -6 4 -10 -8 -10 -29 0 -25 -4 -36 -15 -36 -11 0 -15 11 -15 38 0 34 -14 54
-145 207 l-145 170 0 58 c0 36 -4 56 -10 52 -5 -3 -10 -28 -10 -55 0 -49 -1
-50 -145 -217 -138 -159 -145 -170 -145 -210 0 -36 -3 -43 -19 -43 -15 0 -21
8 -24 38 l-4 37 -1 -36 c-2 -27 -7 -38 -22 -42 -24 -6 -22 57 -20 -754 l1
-552 -37 -34 c-35 -31 -41 -34 -72 -25 -44 12 -115 -5 -159 -38 -20 -15 -39
-43 -50 -74 l-18 -50 -57 0 -58 0 0 229 0 229 37 -19 c55 -28 75 -26 67 9 -4
15 -11 35 -16 45 -5 9 -5 17 -1 17 4 0 23 9 42 21 l34 21 -31 20 c-26 16 -42
19 -84 14 -65 -8 -89 -8 -153 -1 -89 10 -136 -34 -66 -62 40 -16 40 -16 26
-44 -29 -56 -10 -75 45 -44 14 8 28 14 33 15 4 0 7 -101 7 -225 l0 -225 -205
0 c-130 0 -205 -4 -205 -10 0 -7 1363 -10 4070 -10 2707 0 4070 3 4070 10 0 6
-63 10 -170 10 l-170 0 0 80 0 80 30 0 30 0 0 79 c0 78 0 79 -30 91 -25 10
-30 18 -30 46 0 39 -1 39 36 19 16 -8 35 -15 42 -15 15 0 16 34 2 60 -9 17 -5
22 26 35 20 8 34 20 32 27 -8 24 -51 39 -93 33 -59 -9 -95 -9 -136 0 -26 5
-46 2 -73 -10 -35 -17 -36 -18 -20 -36 9 -11 26 -19 36 -19 13 0 18 -6 16 -17
-3 -15 -16 -18 -81 -21 -72 -3 -77 -1 -77 18 0 16 6 20 35 20 19 0 35 4 35 9
0 5 -24 25 -53 45 l-52 36 -160 0 -160 0 -53 -35 c-28 -20 -52 -40 -52 -45 0
-6 18 -10 40 -10 33 0 40 -3 40 -20 0 -18 -7 -20 -71 -20 -68 0 -78 -3 -180
-57 l-109 -57 0 -78 0 -78 30 0 c25 0 30 -4 30 -23 0 -14 19 -43 45 -71 25
-27 45 -53 45 -58 0 -5 -44 -7 -97 -6 l-98 3 -3 210 c-1 115 0 215 2 222 4 9
11 9 33 -2 33 -17 63 -19 63 -5 0 6 -6 26 -14 44 l-14 33 39 17 c21 10 39 22
39 26 0 22 -63 42 -114 36 -28 -3 -60 -6 -71 -6 -11 0 -43 3 -71 6 -37 4 -60
1 -83 -10 -41 -22 -39 -34 8 -53 38 -15 38 -16 25 -42 -30 -57 -9 -77 49 -46
22 11 29 11 33 2 2 -7 3 -107 2 -222 l-3 -210 -82 -3 -83 -3 0 479 c0 471 0
480 20 485 12 3 20 14 20 27 0 13 -8 24 -20 27 -11 3 -20 14 -20 24 0 11 -4
19 -10 19 -5 0 -10 -9 -10 -20 0 -19 -7 -20 -105 -20 -98 0 -105 1 -105 20 0
11 -4 20 -10 20 -5 0 -10 -9 -10 -20 0 -19 -7 -20 -140 -20 l-140 0 0 94 c0
74 3 95 15 100 20 7 20 56 0 56 -11 0 -15 19 -17 93 l-3 92 -40 5 -40 5 -3 58
c-2 31 -7 57 -12 57 -6 0 -10 -9 -10 -20 0 -16 -7 -20 -30 -20 -23 0 -30 4
-30 20 0 11 -4 20 -10 20 -5 0 -10 -9 -10 -20 0 -15 -7 -20 -25 -20 l-25 0 0
180 c0 158 -2 182 -17 199 -61 66 -63 69 -63 115 0 26 7 58 16 71 16 24 15 26
-29 70 l-45 45 -116 0 -115 0 -17 -30 c-10 -16 -27 -30 -38 -32 -26 -4 -35
-45 -12 -54 12 -5 16 -21 16 -64 0 -52 -3 -61 -35 -96 l-35 -38 0 -183 0 -183
-25 0 c-18 0 -25 5 -25 20 0 11 -4 20 -10 20 -5 0 -10 -9 -10 -20 0 -30 -55
-28 -65 3 -6 17 -10 8 -14 -38 l-6 -60 -36 -1 c-20 -1 -41 -4 -48 -8 -7 -5
-11 -40 -11 -97 0 -89 0 -89 -26 -89 -22 0 -25 -4 -22 -27 2 -20 9 -29 26 -31
21 -3 22 -8 22 -98 l0 -94 -135 0 c-128 0 -135 1 -135 20 0 11 -4 20 -10 20
-5 0 -10 -9 -10 -20 0 -19 -7 -20 -105 -20 -98 0 -105 1 -105 20 0 11 -4 20
-10 20 -5 0 -10 -9 -10 -19 0 -10 -7 -21 -15 -25 -8 -3 -15 -15 -15 -26 0 -11
7 -23 15 -26 13 -5 15 -36 15 -188 l0 -182 -35 -17 c-19 -9 -35 -21 -35 -26 0
-5 16 -16 36 -26 30 -14 35 -21 29 -38 -15 -50 -17 -67 -6 -67 6 0 11 -13 11
-30 0 -20 -5 -30 -15 -30 -25 0 -94 -70 -103 -104 -5 -20 -15 -32 -28 -34 -43
-5 -46 7 -51 201 -6 177 -7 186 -26 189 -15 2 -29 23 -50 73 -37 88 -40 92
-71 71 l-26 -16 0 179 c0 134 3 180 13 184 10 3 10 9 0 26 -9 14 -13 71 -13
181 0 147 -1 160 -19 170 -11 5 -29 10 -40 10 -24 0 -28 29 -9 60 9 14 9 24 0
42 -6 13 -12 34 -14 48 l-3 25 -212 3 -213 2 -2 493 -3 492 -62 3 -62 3 -3 97
-3 97 -33 3 c-27 3 -35 -1 -39 -17 -4 -18 -13 -21 -54 -21 -49 0 -49 0 -49 33
0 21 7 36 20 45 34 21 20 72 -20 72 -9 0 -21 -5 -28 -12z m-1102 -305 c0 -212
4 -228 64 -257 36 -17 43 -18 80 -5 68 23 76 51 76 267 0 175 1 182 20 182 19
0 20 -7 20 -197 0 -180 -2 -201 -20 -231 -59 -97 -192 -96 -264 1 -19 26 -21
44 -24 228 l-3 199 25 0 26 0 0 -187z m1030 -7 c0 -194 0 -195 26 -225 32 -38
80 -49 126 -27 59 28 63 41 66 254 3 182 5 192 23 192 18 0 19 -9 19 -193 0
-216 -6 -241 -71 -285 -44 -31 -129 -28 -176 6 -57 40 -63 69 -63 281 l0 191
25 0 25 0 0 -194z m-830 9 l0 -86 -92 3 -93 3 -3 69 c-2 38 -1 75 2 83 4 9 29
13 96 13 l90 0 0 -85z m1030 0 l0 -86 -92 3 -93 3 -3 83 -3 82 96 0 95 0 0
-85z m-1030 -146 c0 -43 -5 -55 -29 -80 -38 -38 -91 -40 -126 -5 -24 24 -43
104 -30 125 3 7 43 11 96 11 l89 0 0 -51z m1030 0 c0 -43 -5 -55 -29 -80 -64
-63 -161 -19 -161 74 0 24 3 47 7 50 3 4 46 7 95 7 l88 0 0 -51z m-1292 -31
l3 -58 -66 0 -65 0 0 53 c0 30 3 57 7 61 4 4 32 6 63 4 l55 -3 3 -57z m467 2
l0 -55 -62 -3 -63 -3 0 61 0 61 63 -3 62 -3 0 -55z m-363 -145 c69 -28 144
-12 193 41 l25 27 0 -112 0 -111 -155 0 -155 0 0 103 c0 57 3 107 7 111 4 3
16 -5 27 -19 12 -13 38 -31 58 -40z m966 45 c17 -28 85 -60 126 -60 48 0 85
16 124 53 l32 31 0 -112 0 -112 -155 0 -155 0 0 110 c0 61 3 110 8 110 4 0 13
-9 20 -20z m-748 -365 l0 -146 -152 3 -153 3 -3 100 c-2 55 0 119 3 143 l6 42
150 0 149 0 0 -145z m1030 0 l0 -145 -155 0 -155 0 0 145 0 145 155 0 155 0 0
-145z m2200 20 l0 -65 -155 0 -155 0 0 65 0 65 155 0 155 0 0 -65z m32 -92
c10 -9 18 -20 18 -25 0 -4 -92 -8 -205 -8 -113 0 -205 3 -205 6 0 3 5 14 10
25 10 18 23 19 187 19 150 0 179 -2 195 -17z m-4206 -168 l126 -150 -136 -3
c-76 -1 -195 -1 -266 0 l-128 3 130 153 c72 84 135 151 139 150 5 -2 65 -70
135 -153z m4239 -95 l0 -215 -222 -3 -223 -2 0 220 0 220 223 -2 222 -3 0
-215z m-3295 35 l0 -135 -155 0 -155 0 0 113 c0 171 -14 157 161 157 l149 0 0
-135z m1030 0 l0 -135 -155 0 -155 0 0 135 0 135 155 0 155 0 0 -135z m560
-90 l0 -25 -205 0 -205 0 0 25 0 25 205 0 205 0 0 -25z m-2390 -60 l0 -35
-280 0 -280 0 0 35 0 35 280 0 280 0 0 -35z m800 -150 l0 -146 -152 3 -153 3
-3 100 c-2 55 0 119 3 143 l6 42 150 0 149 0 0 -145z m1030 0 l0 -145 -155 0
-155 0 0 145 0 145 155 0 155 0 0 -145z m560 100 l0 -25 -205 0 -205 0 0 25 0
25 205 0 205 0 0 -25z m-2340 -95 l0 -90 -332 2 -333 3 -3 74 c-2 41 -1 80 2
88 4 10 68 13 336 13 l330 0 0 -90z m2420 -110 l0 -160 -45 0 -45 0 0 115 c0
70 -4 115 -10 115 -6 0 -10 -45 -10 -116 l0 -115 -32 3 -33 3 -6 115 -5 115
-2 -117 c-2 -111 -3 -118 -22 -118 -19 0 -20 7 -22 118 l-2 117 -3 -117 -4
-118 -34 0 -35 0 -2 118 -2 117 -3 -117 c-3 -110 -5 -118 -23 -118 -19 0 -20
7 -20 116 0 74 -4 113 -10 109 -6 -4 -10 -53 -10 -116 l0 -109 -25 0 -25 0 0
115 c0 70 -4 115 -10 115 -6 0 -10 -45 -10 -115 0 -108 -1 -115 -20 -115 -19
0 -20 7 -20 160 l0 160 245 0 245 0 0 -160z m1830 50 l0 -90 -427 2 -428 3 -3
74 c-2 41 -1 80 2 88 4 11 84 13 431 13 l425 0 0 -90z m-4200 -70 c0 -20 -7
-20 -380 -20 -373 0 -380 0 -380 20 0 20 7 20 380 20 373 0 380 0 380 -20z
m-730 -666 c0 -496 -3 -625 -12 -622 -10 4 -14 138 -16 619 -1 338 0 620 3
627 3 7 9 10 15 7 7 -4 10 -222 10 -631z m678 593 l3 -37 -333 2 -333 3 -3 23
c-8 54 -19 52 335 50 l328 -3 3 -38z m42 -502 c0 -357 -3 -545 -10 -545 -7 0
-10 188 -10 545 0 357 3 545 10 545 7 0 10 -188 10 -545z m4280 530 c0 -13
-64 -15 -515 -15 -283 0 -515 4 -515 8 0 5 3 12 7 15 3 4 235 7 515 7 445 0
508 -2 508 -15z m-3570 -130 l0 -135 -155 0 -155 0 0 104 c0 57 3 118 6 135
l7 31 148 0 149 0 0 -135z m1030 0 l0 -135 -155 0 -155 0 0 135 0 135 155 0
155 0 0 -135z m1594 58 c3 -21 6 -212 6 -425 0 -338 -2 -388 -15 -388 -13 0
-15 54 -15 425 0 387 6 492 24 388z m876 -388 l0 -425 -90 0 -90 0 0 53 c0 29
-5 58 -12 65 -17 17 -449 17 -466 0 -7 -7 -12 -36 -12 -65 l0 -53 -95 0 -95 0
0 388 c0 213 3 404 6 425 l7 37 423 0 424 0 0 -425z m40 0 c0 -277 -3 -425
-10 -425 -7 0 -10 148 -10 425 0 277 3 425 10 425 7 0 10 -148 10 -425z
m-4290 355 c0 -20 -5 -20 -332 -18 -308 3 -333 4 -336 21 -3 16 18 17 332 17
330 0 336 0 336 -20z m0 -65 l0 -25 -335 0 c-318 0 -335 1 -335 18 0 10 3 22
7 25 3 4 154 7 335 7 l328 0 0 -25z m2040 -155 l0 -170 -25 16 c-25 16 -25 17
-25 170 l0 154 25 0 25 0 0 -170z m138 -12 l-3 -183 -32 -3 -33 -3 0 185 0
186 35 0 35 0 -2 -182z m132 1 c0 -192 1 -189 -47 -146 -22 20 -23 27 -23 174
l0 153 35 0 35 0 0 -181z m108 -1 l-3 -183 -42 -3 -43 -3 0 185 0 186 45 0 45
0 -2 -182z m-2418 107 c0 -13 -44 -15 -335 -15 -291 0 -335 2 -335 15 0 13 44
15 335 15 291 0 335 -2 335 -15z m0 -65 l0 -30 -335 0 c-355 0 -346 -1 -329
44 5 14 44 16 335 16 l329 0 0 -30z m750 -140 l0 -151 -152 3 -153 3 -3 105
c-2 58 0 124 3 148 l6 42 150 0 149 0 0 -150z m1030 51 c0 -93 -1 -99 -19 -94
-12 3 -34 -6 -56 -23 l-36 -27 -37 18 c-21 10 -63 19 -97 20 l-60 2 -3 102 -3
101 156 0 155 0 0 -99z m1260 -86 l0 -185 -36 0 c-19 0 -44 -4 -54 -10 -13 -7
-35 -6 -72 4 l-53 13 -3 139 c-2 77 0 158 3 182 l6 42 105 0 104 0 0 -185z
m290 -115 l0 -300 -135 0 -135 0 0 79 c0 61 3 80 15 85 12 4 15 -4 15 -44 l0
-50 40 0 40 0 0 53 c0 55 -12 77 -42 77 -9 0 -29 5 -43 12 l-25 11 0 189 0
188 135 0 135 0 0 -300z m1260 37 l0 -262 -40 -13 c-31 -9 -49 -9 -84 0 l-45
12 -3 60 c-3 66 -20 82 -52 51 -23 -23 -22 -101 2 -114 14 -9 15 -10 1 -11 -9
0 -24 -9 -33 -19 -17 -18 -17 -20 1 -30 17 -10 16 -10 -4 -11 l-23 0 0 300 0
300 140 0 140 0 0 -263z m230 -37 l0 -300 -76 0 c-69 0 -75 2 -63 16 11 14 10
18 -6 31 -11 7 -30 16 -42 20 l-23 5 0 264 0 264 105 0 105 0 0 -300z m-4822
223 c-3 -17 -28 -18 -327 -21 -190 -1 -329 2 -334 7 -27 27 12 31 334 31 309
0 330 -1 327 -17z m2 -68 l0 -35 -329 0 c-199 0 -332 4 -336 10 -3 5 -3 21 1
35 l6 25 329 0 329 0 0 -35z m0 -65 c0 -20 -7 -20 -329 -20 -209 0 -332 4
-336 10 -17 27 17 30 336 30 322 0 329 0 329 -20z m1870 -34 c27 0 64 9 90 22
38 19 46 20 60 7 9 -8 33 -21 54 -30 43 -18 83 -13 135 17 l35 20 40 -23 c51
-29 112 -29 160 -1 21 12 39 22 42 22 3 0 18 -30 34 -66 22 -48 30 -81 30
-122 l0 -56 -28 27 c-36 35 -52 34 -88 -4 l-29 -31 -5 54 c-5 49 -7 53 -32 56
-28 3 -28 2 -28 -52 0 -31 -3 -56 -7 -56 -5 1 -24 14 -43 30 -19 17 -39 30
-45 30 -6 0 -24 -13 -40 -30 -43 -45 -55 -39 -55 25 0 52 -1 55 -25 55 -23 0
-25 -3 -25 -50 0 -27 -4 -50 -9 -50 -5 0 -23 11 -39 25 -17 14 -34 25 -39 25
-5 0 -28 -14 -50 -30 l-42 -31 -3 53 c-3 52 -4 53 -33 53 -29 0 -30 -2 -35
-53 l-5 -54 -29 31 c-17 17 -35 31 -43 31 -7 0 -28 -14 -47 -31 l-35 -30 -3
53 c-3 50 -5 53 -30 56 -28 3 -28 2 -28 -52 0 -31 -4 -56 -8 -56 -4 0 -25 17
-46 39 l-38 39 103 90 103 90 40 -21 c23 -12 58 -21 86 -21z m-1442 -58 l3
-78 -66 0 -65 0 0 80 0 81 63 -3 62 -3 3 -77z m467 2 l0 -75 -62 -3 -63 -3 0
81 0 81 63 -3 62 -3 0 -75z m720 58 c14 -6 25 -14 25 -18 0 -4 -29 -33 -64
-64 -49 -42 -72 -56 -95 -56 -19 0 -34 6 -37 15 -4 9 -19 15 -35 15 -19 0 -29
-5 -29 -15 0 -12 -16 -15 -80 -15 -64 0 -80 3 -80 15 0 10 -10 15 -30 15 -20
0 -30 -5 -30 -15 0 -11 -11 -15 -40 -15 -44 0 -47 5 -24 38 39 57 138 69 212
27 l44 -25 41 46 c64 69 143 88 222 52z m-1617 -35 l3 -33 -330 0 c-198 0
-332 4 -336 10 -3 5 -3 21 1 35 l6 25 327 -2 326 -3 3 -32z m2 -68 c0 -13 -43
-15 -330 -15 -287 0 -330 2 -330 15 0 13 43 15 330 15 287 0 330 -2 330 -15z
m0 -60 l0 -25 -329 0 c-187 0 -332 4 -335 9 -4 5 -3 16 0 25 5 14 44 16 335
16 l329 0 0 -25z m460 -40 l0 -45 -90 0 -90 0 0 45 0 45 90 0 90 0 0 -45z
m230 0 l0 -45 -85 0 -85 0 0 45 0 45 85 0 85 0 0 -45z m240 0 l0 -45 -85 0
-85 0 0 45 0 45 85 0 85 0 0 -45z m230 0 l0 -45 -90 0 -90 0 0 45 0 45 90 0
90 0 0 -45z m4708 0 l37 -25 -228 0 c-125 0 -227 2 -227 4 0 2 15 13 33 25 29
19 47 21 190 21 152 0 159 -1 195 -25z m-5868 -25 c0 -20 -7 -20 -330 -20
-323 0 -330 0 -330 20 0 20 7 20 330 20 323 0 330 0 330 -20z m5070 -257 l0
-233 -25 0 -25 0 0 238 c0 176 3 241 12 250 10 10 15 9 25 -5 10 -12 13 -78
13 -250z m-1020 142 l0 -95 -34 0 c-30 0 -35 4 -41 28 -3 16 -24 46 -45 67
-35 34 -46 39 -97 42 -46 3 -65 0 -91 -16 -35 -22 -72 -75 -72 -103 0 -14 -8
-18 -35 -18 l-35 0 0 95 0 95 225 0 225 0 0 -95z m-4050 50 l0 -25 -335 0
c-197 0 -335 4 -335 9 0 41 -3 41 341 41 l329 0 0 -25z m460 -25 l0 -50 -90 0
-90 0 0 50 0 50 90 0 90 0 0 -50z m700 0 l0 -50 -90 0 c-84 0 -112 9 -74 24
16 6 16 8 0 24 -9 10 -16 26 -16 35 0 15 13 17 90 17 l90 0 0 -50z m220 0 l0
-50 -80 0 -80 0 0 50 0 50 80 0 80 0 0 -50z m250 0 l0 -50 -95 0 -95 0 0 50 0
50 95 0 95 0 0 -50z m220 0 l0 -50 -80 0 -80 0 0 50 0 50 80 0 80 0 0 -50z
m2050 -18 c26 -19 70 -78 70 -93 0 -5 -66 -9 -146 -9 l-145 0 6 23 c28 91 141
133 215 79z m2110 13 c0 -10 10 -15 28 -15 32 0 72 -25 72 -46 0 -12 -67 -14
-467 -13 l-468 0 85 44 85 44 333 0 c289 1 332 -1 332 -14z m-6010 -35 c0 -20
-7 -20 -335 -20 -272 0 -335 2 -335 13 0 8 3 17 7 20 3 4 154 7 335 7 321 0
328 0 328 -20z m2810 -115 c0 -76 -3 -97 -15 -101 -8 -4 -15 -12 -15 -20 0
-11 6 -10 35 2 80 33 183 8 243 -60 60 -69 77 -66 -368 -66 -340 0 -400 2
-400 14 0 39 85 70 129 46 14 -7 23 -3 40 21 28 38 78 69 112 69 15 0 45 -7
67 -14 53 -19 67 -1 17 20 -25 10 -35 20 -33 32 4 18 6 18 51 7 23 -6 27 -4
27 14 0 32 28 82 58 108 47 40 52 32 52 -72z m230 -15 c0 -60 -2 -110 -5 -110
-2 0 -20 8 -40 17 l-35 17 0 93 0 93 40 0 40 0 0 -110z m540 81 c0 -21 -6 -32
-20 -36 -11 -4 -20 -15 -20 -27 0 -11 8 -22 20 -25 18 -5 20 -14 20 -114 l0
-109 -235 0 c-192 0 -235 3 -235 14 0 7 -11 30 -25 50 -23 34 -25 45 -25 156
l0 120 260 0 260 0 0 -29z m810 10 c-28 -52 -2 -76 50 -46 14 8 28 14 33 15 4
0 7 -65 7 -145 l0 -145 -205 0 -205 0 0 109 c0 106 1 110 23 113 34 5 36 45 3
54 -20 5 -26 12 -26 35 l0 29 165 0 c161 0 165 -1 155 -19z m430 -151 l0 -170
-105 0 -105 0 0 130 c0 113 2 130 16 130 17 0 16 22 -1 63 -7 15 2 17 94 17
l101 0 0 -170z m-4340 95 l64 -65 118 0 118 0 0 -100 0 -100 -195 0 -195 0
-16 40 c-22 55 -56 80 -110 80 -29 0 -61 9 -94 28 l-50 27 0 71 c0 39 3 74 7
77 3 4 70 7 147 7 l142 0 64 -65z m1474 33 c-4 -18 -18 -45 -33 -60 -26 -28
-26 -28 -186 -30 l-160 -3 -3 28 c-2 16 -14 34 -28 43 -22 15 -26 15 -49 0
-16 -10 -25 -26 -25 -42 0 -13 -6 -27 -12 -29 -7 -2 -143 -1 -303 3 l-290 7
-3 38 -3 38 30 -15 c16 -9 39 -16 50 -16 17 0 19 4 10 32 -5 18 -9 34 -9 35 0
2 229 3 510 3 l510 0 -6 -32z m646 -48 c0 -76 -1 -80 -22 -80 -35 -1 -102 -35
-125 -63 -17 -22 -26 -25 -55 -21 -47 8 -103 -17 -123 -55 -15 -30 -17 -31
-90 -31 l-75 0 0 100 0 100 43 0 c39 0 48 5 107 65 l64 65 138 0 138 0 0 -80z
m-2600 45 l0 -25 -335 0 c-197 0 -335 4 -335 9 0 41 -3 41 341 41 l329 0 0
-25z m6104 -26 c3 -17 3 -35 0 -40 -8 -13 -951 -12 -959 1 -4 6 -4 24 0 40 l7
30 473 0 473 0 6 -31z m-6104 -44 l0 -25 -329 0 c-219 0 -332 4 -336 10 -4 6
-4 17 -1 25 5 13 56 15 336 15 l330 0 0 -25z m4050 -116 l0 -110 -37 3 -38 3
-3 68 -3 68 -142 -3 -142 -3 -3 -67 -3 -68 -39 0 -40 0 0 110 0 110 225 0 225
0 0 -111z m2050 86 c0 -13 -59 -15 -475 -15 -416 0 -475 2 -475 15 0 13 59 15
475 15 416 0 475 -2 475 -15z m-4787 -41 c26 -25 47 -48 47 -52 0 -3 -21 -28
-47 -54 l-47 -48 -203 0 -203 0 0 100 0 100 203 0 202 0 48 -46z m732 -54 l0
-95 -124 -3 -125 -3 -53 53 -53 52 47 48 48 49 130 -3 130 -3 0 -95z m-2045
76 c0 -7 -11 -21 -25 -30 -21 -14 -65 -16 -329 -16 -168 0 -307 4 -310 8 -3 5
-2 18 1 30 l5 22 329 0 c274 0 329 -2 329 -14z m-722 -83 l-3 -88 -154 -3
-153 -3 7 28 c21 86 122 143 203 113 32 -11 36 -10 59 14 13 14 28 26 34 26 6
0 9 -34 7 -87z m898 28 c31 -21 45 -26 63 -19 12 4 34 5 47 2 29 -8 74 -58 74
-85 0 -18 -10 -19 -230 -19 -253 0 -247 -2 -215 60 18 34 72 78 112 90 44 14
104 2 149 -29z m1524 32 c0 -3 -7 -15 -17 -25 -14 -16 -33 -18 -156 -18 -117
0 -144 3 -159 17 -10 9 -18 20 -18 25 0 4 79 8 175 8 96 0 175 -3 175 -7z
m4400 -18 c0 -13 -56 -15 -445 -15 -389 0 -445 2 -445 15 0 13 56 15 445 15
389 0 445 -2 445 -15z m-2140 -70 l0 -65 -130 0 -130 0 0 65 0 65 130 0 130 0
0 -65z m-4040 42 c0 -34 -21 -37 -301 -37 -279 0 -298 2 -285 35 8 21 586 22
586 2z m6180 -18 c0 -5 -14 -28 -32 -50 l-31 -39 -362 0 -361 0 -36 44 c-21
24 -34 46 -31 50 12 11 853 7 853 -5z m-6219 -61 c-8 -23 -9 -23 -271 -26
-157 -1 -268 2 -273 7 -5 5 -7 17 -4 25 6 14 41 16 281 16 l275 0 -8 -22z"/>
<path d="M460 1110 c0 -7 1166 -10 3479 -10 2309 0 3482 3 3486 10 4 7 -1158
10 -3479 10 -2317 0 -3486 -3 -3486 -10z"/>
<path d="M4085 890 c-22 -5 -57 -9 -77 -9 -21 -1 -38 -6 -38 -12 0 -8 19 -9
68 -3 37 5 121 8 187 7 174 -2 362 -2 505 0 69 1 155 -2 193 -7 43 -5 67 -5
67 1 0 23 -157 30 -485 22 -66 -1 -178 0 -250 4 -71 3 -148 2 -170 -3z"/>
<path d="M6575 891 c-16 -5 -49 -9 -72 -10 -24 0 -43 -6 -43 -12 0 -8 19 -9
68 -3 37 5 123 8 192 7 143 -2 331 -2 505 0 66 1 150 -2 188 -7 43 -5 67 -5
67 1 0 23 -156 30 -485 22 -66 -1 -181 0 -255 4 -74 3 -148 2 -165 -2z"/>
<path d="M1364 838 l-30 -53 -87 -3 c-61 -2 -87 -6 -87 -15 0 -7 19 -31 43
-54 37 -36 50 -42 107 -49 36 -5 126 -8 200 -7 139 2 339 2 445 1 33 -1 98 2
145 6 64 6 97 4 133 -7 26 -8 49 -12 52 -7 6 10 -70 30 -125 32 -25 1 -98 -2
-164 -7 l-118 -8 7 24 c4 13 14 36 21 51 17 33 18 70 2 86 -15 15 -92 16 -119
2 -10 -6 -19 -20 -19 -30 0 -19 -7 -20 -121 -20 l-120 0 -58 55 c-32 30 -62
55 -67 55 -6 0 -23 -24 -40 -52z m536 -73 c0 -3 -9 -23 -20 -44 l-19 -38 -113
-7 c-62 -3 -151 -9 -198 -12 -49 -4 -128 -1 -188 7 -94 12 -107 16 -142 47
-22 18 -40 38 -40 43 0 5 147 9 360 9 198 0 360 -2 360 -5z"/>
<path d="M4848 578 c-4 -10 -20 -18 -40 -20 -25 -2 -34 -8 -36 -24 -2 -12 -12
-24 -23 -27 -15 -4 -19 -14 -19 -50 0 -36 -4 -46 -20 -50 -14 -3 -20 -14 -20
-31 0 -21 -5 -26 -25 -26 -30 0 -30 -1 -5 -68 11 -29 20 -56 20 -61 0 -18
-119 -22 -221 -6 -118 17 -139 18 -139 6 0 -13 134 -26 253 -24 107 2 301 2
505 1 59 0 163 1 232 3 69 2 161 0 204 -5 67 -8 81 -7 90 7 7 8 35 41 64 72
29 31 52 60 52 66 0 5 -34 9 -75 9 l-75 0 0 30 0 30 -138 0 -138 0 -18 50
c-18 50 -18 50 -61 50 -38 0 -44 3 -47 23 -3 22 -6 22 -155 25 -134 2 -152 4
-155 20 -3 16 -4 16 -10 0z m420 -150 c3 -17 -14 -18 -257 -18 -255 0 -261 0
-261 20 0 20 5 20 257 18 236 -3 258 -4 261 -20z m394 -135 c-17 -21 -43 -50
-59 -65 l-28 -26 -90 13 c-117 18 -169 18 -295 0 -95 -15 -113 -15 -219 1 -75
11 -143 14 -193 11 -43 -4 -78 -5 -78 -4 0 1 -9 26 -20 55 l-20 52 516 0 516
0 -30 -37z"/>
</g>
</svg>
