<?xml version="1.0" standalone="no"?>
<!DOCTYPE svg PUBLIC "-//W3C//DTD SVG 20010904//EN"
 "http://www.w3.org/TR/2001/REC-SVG-20010904/DTD/svg10.dtd">
<svg version="1.0" xmlns="http://www.w3.org/2000/svg"
 width="1504.000000pt" height="1454.000000pt" viewBox="0 0 1504.000000 1454.000000"
 preserveAspectRatio="xMidYMid meet">
<metadata>
Created by potrace 1.16, written by Peter Selinger 2001-2019
</metadata>
<g transform="translate(0.000000,1454.000000) scale(0.100000,-0.100000)"
fill="#000000" stroke="none">
<path d="M7060 14254 c-25 -2 -103 -8 -175 -14 -580 -47 -1128 -159 -1670
-342 -903 -304 -1695 -764 -2414 -1398 -182 -161 -482 -462 -634 -637 -732
-841 -1239 -1808 -1518 -2893 -41 -158 -114 -526 -137 -695 -20 -135 -28 -204
-54 -460 -17 -162 -17 -936 0 -1105 37 -378 61 -542 117 -825 85 -425 192
-788 352 -1195 470 -1194 1284 -2258 2318 -3032 613 -459 1255 -796 1975
-1038 547 -184 990 -275 1670 -342 169 -17 920 -17 1100 0 335 31 542 61 830
118 311 62 535 122 840 224 911 306 1701 767 2455 1431 78 68 466 456 534 534
434 492 762 972 1043 1526 155 306 271 584 388 928 179 529 283 1037 342 1671
17 180 17 931 0 1100 -57 579 -124 943 -257 1400 -325 1117 -912 2118 -1734
2954 -994 1010 -2241 1687 -3611 1960 -239 47 -419 76 -610 96 -58 6 -150 15
-205 21 -97 10 -854 21 -945 13z m915 -249 c249 -21 453 -47 635 -80 165 -31
186 -35 280 -55 325 -69 715 -190 1068 -331 229 -92 300 -124 537 -244 2038
-1035 3428 -3039 3669 -5290 33 -305 39 -423 39 -750 0 -336 -11 -510 -48
-820 -29 -243 -65 -450 -81 -465 -5 -4 -38 6 -74 22 -36 17 -110 50 -165 75
-55 25 -120 54 -145 65 -141 64 -176 80 -285 128 -66 30 -122 55 -125 58 -3 2
-5 58 -5 124 0 107 -2 121 -19 134 -16 12 -90 14 -418 14 l-398 0 0 273 0 272
-32 35 c-44 48 -481 507 -708 745 -59 60 -132 137 -163 170 l-57 60 0 198 c0
184 -1 198 -20 217 -19 19 -33 20 -314 20 -293 0 -295 0 -310 -22 -13 -18 -16
-57 -16 -218 l-1 -195 -71 -75 c-351 -368 -463 -480 -472 -477 -7 3 -144 96
-306 207 -162 112 -302 205 -311 207 -9 3 -83 -9 -165 -25 -82 -16 -191 -38
-243 -48 -104 -21 -101 -18 -184 -148 -27 -41 -48 -58 -122 -98 -210 -114
-257 -140 -389 -212 -76 -42 -143 -76 -148 -76 -12 0 -10 13 42 330 68 414
103 607 166 915 19 94 34 173 34 178 0 4 66 7 148 7 326 0 474 33 639 143 66
44 83 69 83 120 0 60 -49 100 -170 137 -37 11 -54 22 -52 31 2 8 22 60 44 117
28 73 46 106 62 112 11 5 91 21 176 35 376 62 434 73 447 91 30 41 11 53 -193
113 -99 30 -187 58 -196 63 -14 7 -18 22 -18 66 0 32 -5 63 -12 70 -8 8 -57
12 -155 12 -105 0 -143 3 -143 12 0 7 14 49 31 95 47 123 50 119 -143 185
-221 76 -895 310 -987 342 -88 31 -108 47 -117 92 -9 51 19 92 124 178 127
106 125 119 -38 171 -47 15 -90 34 -97 42 -6 8 -17 38 -23 66 -6 28 -15 57
-22 64 -8 10 -51 13 -173 13 -90 0 -170 3 -179 6 -13 5 -16 26 -16 124 0 84
-4 121 -13 128 -7 6 -49 12 -92 14 l-80 3 -3 907 c-2 895 -2 907 -22 918 -14
8 -26 8 -40 0 -20 -11 -20 -23 -22 -918 l-3 -907 -80 -3 c-43 -2 -85 -8 -92
-14 -9 -7 -13 -44 -13 -128 0 -98 -3 -119 -16 -124 -9 -3 -89 -6 -179 -6 -118
0 -165 -3 -173 -12 -6 -7 -17 -40 -26 -72 -8 -32 -18 -62 -23 -66 -4 -4 -46
-20 -93 -35 -163 -52 -165 -65 -36 -172 52 -43 102 -93 111 -111 20 -41 14
-91 -15 -117 -11 -10 -102 -46 -203 -81 -162 -55 -401 -138 -885 -305 -129
-45 -153 -56 -158 -76 -4 -13 7 -58 25 -108 17 -47 31 -90 31 -96 0 -5 -60 -9
-143 -9 -98 0 -147 -4 -155 -12 -7 -7 -12 -39 -12 -73 l0 -61 -107 -33 c-60
-18 -152 -46 -205 -62 -75 -23 -98 -34 -103 -50 -12 -38 17 -51 162 -75 307
-51 476 -83 485 -92 5 -5 28 -59 53 -121 l44 -112 -25 -10 c-14 -5 -30 -9 -35
-9 -25 0 -138 -60 -153 -81 -9 -13 -16 -42 -16 -65 0 -52 31 -87 127 -141 152
-84 302 -113 594 -113 l146 0 52 -267 c65 -333 161 -877 161 -912 0 -7 -36
-11 -112 -11 l-113 0 -160 113 c-88 62 -236 167 -330 234 l-170 121 -294 36
-293 37 -127 60 c-69 33 -285 135 -480 227 l-354 167 -203 204 -204 204 -52
-8 c-29 -3 -117 -15 -194 -25 l-141 -18 -129 32 c-71 18 -134 31 -140 29 -7
-2 -111 -118 -233 -258 -121 -139 -229 -256 -238 -259 -18 -5 -662 -147 -878
-193 -66 -14 -136 -31 -155 -37 -19 -7 -190 -117 -378 -244 -189 -128 -348
-232 -353 -232 -12 0 -12 1 6 160 67 608 200 1152 423 1725 446 1150 1219
2174 2212 2931 334 255 721 495 1105 684 860 424 1765 653 2750 694 151 6 600
-5 770 -19z m-391 -2631 c8 -20 8 -108 0 -157 l-7 -38 -141 3 -141 3 -3 80
c-5 133 -15 125 147 125 117 0 140 -2 145 -16z m20 -239 c16 -12 56 -15 193
-15 l173 0 10 -26 c6 -14 10 -34 10 -45 0 -19 -13 -19 -550 -19 -537 0 -550 0
-550 19 0 11 4 31 10 45 l10 26 173 0 c137 0 177 3 193 15 15 11 52 14 164 14
112 0 149 -3 164 -14z m410 -144 c9 -8 47 -24 83 -36 37 -13 69 -27 71 -33 1
-5 -25 -33 -59 -63 -69 -60 -98 -112 -99 -178 0 -54 41 -134 78 -151 15 -7
117 -43 227 -80 110 -38 279 -96 375 -130 280 -98 343 -120 347 -120 2 0 1 -4
-2 -10 -8 -13 -3181 -14 -3189 -1 -6 9 25 23 124 55 25 8 124 42 220 76 229
81 517 179 556 191 102 30 152 152 105 255 -10 23 -45 64 -80 94 -33 29 -61
56 -61 60 0 4 21 15 48 24 26 10 63 25 82 34 19 9 46 19 60 22 14 3 266 6 561
6 444 -1 539 -3 553 -15z m-1979 -971 l0 -75 -45 0 -45 0 -3 64 c-4 87 -1 93
50 89 l43 -3 0 -75z m140 0 l0 -75 -55 0 -55 0 -3 64 c-4 89 -2 93 60 89 l53
-3 0 -75z m163 21 c2 -30 1 -66 -3 -78 -5 -22 -10 -24 -68 -21 l-62 3 -3 64
c-4 91 -3 92 70 89 l63 -3 3 -54z m207 -21 l0 -75 -84 -3 c-61 -2 -87 1 -92
10 -11 16 -12 132 -2 142 4 4 46 5 93 4 l85 -3 0 -75z m205 0 l0 -80 -84 0
c-67 0 -85 3 -90 16 -8 21 -8 129 1 137 3 4 44 7 90 7 l83 0 0 -80z m205 0 l0
-75 -85 0 -85 0 -3 64 c-4 93 -6 92 90 89 l83 -3 0 -75z m240 0 l0 -75 -100 0
-100 0 -3 64 c-4 95 -7 92 105 89 l98 -3 0 -75z m233 21 c6 -102 5 -102 -101
-99 l-92 3 -3 64 c-4 94 -7 92 100 89 l93 -3 3 -54z m217 -21 l0 -75 -95 0
-95 0 -3 64 c-4 94 -7 92 100 89 l93 -3 0 -75z m240 0 l0 -75 -100 0 -100 0
-3 64 c-4 95 -7 92 105 89 l98 -3 0 -75z m210 0 l0 -75 -85 0 -85 0 -3 64 c-4
93 -6 92 90 89 l83 -3 0 -75z m213 21 c6 -100 4 -101 -93 -101 l-85 0 0 80 0
81 88 -3 87 -3 3 -54z m210 0 c2 -30 1 -65 -3 -78 -5 -23 -9 -24 -93 -21 l-87
3 -3 64 c-4 94 -6 92 95 89 l88 -3 3 -54z m157 -21 l0 -75 -59 -3 c-41 -2 -62
1 -67 10 -11 16 -12 132 -2 142 4 4 34 6 68 4 l60 -3 0 -75z m140 0 l0 -75
-55 0 -55 0 -3 64 c-4 89 -2 93 60 89 l53 -3 0 -75z m120 0 l0 -75 -45 0 -45
0 -3 64 c-4 87 -1 93 50 89 l43 -3 0 -75z m599 -176 c11 -29 6 -53 -13 -63
-25 -14 -4138 -13 -4163 0 -18 10 -25 58 -11 72 3 4 946 7 2094 7 1894 0 2087
-1 2093 -16z m15 -108 c6 -7 63 -28 127 -46 63 -18 111 -37 107 -41 -5 -5
-102 -24 -216 -44 l-209 -35 -1918 0 -1919 0 -148 26 c-81 14 -175 29 -207 34
-32 5 -63 13 -68 18 -5 5 38 22 106 42 64 18 121 39 127 46 17 21 4201 21
4218 0z m-3872 -254 c7 -4 19 -47 27 -94 9 -48 18 -99 22 -113 6 -24 4 -26
-21 -23 -24 3 -31 14 -71 112 -24 60 -41 113 -38 117 6 11 65 11 81 1z m110
-4 c9 -15 41 -171 42 -205 1 -20 -4 -23 -33 -23 -19 0 -37 3 -39 8 -10 15 -38
205 -33 218 7 17 52 18 63 2z m147 4 c6 -9 31 -134 39 -194 5 -34 3 -39 -19
-44 -13 -3 -40 -3 -59 0 -36 7 -38 10 -48 81 -3 17 -10 57 -16 90 -8 45 -8 61
2 67 16 10 94 10 101 0z m143 -4 c8 -12 18 -56 39 -182 8 -44 -3 -56 -52 -56
-57 0 -65 16 -91 187 -8 52 1 63 50 63 25 0 49 -6 54 -12z m189 4 c10 -7 25
-68 39 -157 3 -22 8 -47 11 -56 4 -13 -8 -17 -66 -23 -81 -7 -110 3 -110 38 0
13 -7 58 -16 101 -9 42 -13 83 -10 91 4 10 23 14 73 14 37 0 73 -4 79 -8z
m215 -12 c7 -15 39 -183 39 -207 0 -15 -165 -19 -174 -5 -10 17 -38 203 -32
218 8 21 155 16 167 -6z m233 14 c13 -5 16 -25 16 -120 0 -113 0 -114 -25
-120 -30 -7 -141 -1 -151 9 -4 4 -11 28 -15 54 -4 27 -13 75 -18 107 -6 32 -8
63 -5 67 6 10 174 12 198 3z m244 -115 l3 -116 -32 -7 c-40 -8 -142 -8 -163 0
-13 5 -16 25 -16 118 0 62 3 116 7 120 4 4 50 5 103 4 l95 -3 3 -116z m226
115 c13 -5 16 -25 16 -120 l0 -114 -105 0 -105 0 0 113 c0 63 3 117 7 120 8 9
166 9 187 1z m240 -10 c3 -9 6 -62 6 -119 0 -85 -3 -104 -16 -109 -20 -8 -113
-8 -153 0 l-31 7 0 112 c0 61 3 115 7 118 3 4 46 7 94 7 70 0 88 -3 93 -16z
m224 -105 l3 -116 -32 -7 c-40 -8 -133 -8 -153 0 -13 5 -16 24 -16 109 0 57 3
111 6 120 5 13 21 15 98 13 l91 -3 3 -116z m240 -1 l3 -118 -106 0 -105 0 0
113 c0 63 3 117 7 121 4 4 50 5 103 4 l95 -3 3 -117z m240 3 c2 -85 -1 -117
-10 -123 -15 -9 -122 -11 -167 -2 l-31 7 0 112 c0 61 3 115 7 119 4 4 50 5
103 4 l95 -3 3 -114z m236 110 c3 -4 1 -35 -5 -67 -5 -32 -14 -80 -18 -107 -4
-26 -11 -50 -15 -54 -10 -10 -121 -16 -151 -9 -25 6 -25 7 -25 120 0 82 4 116
13 119 21 9 196 7 201 -2z m198 -51 c-1 -30 -8 -82 -15 -115 l-12 -60 -87 -3
c-101 -3 -97 -10 -73 103 8 38 15 79 15 90 0 37 20 46 100 43 l75 -3 -3 -55z
m203 48 c2 -7 -4 -60 -13 -117 -13 -71 -23 -106 -34 -112 -9 -5 -49 -6 -88 -3
-58 6 -70 10 -66 23 3 9 8 34 11 56 14 89 29 150 39 157 19 13 146 9 151 -4z
m139 -33 c0 -22 -7 -75 -14 -117 -13 -77 -14 -78 -47 -84 -18 -3 -45 -3 -59 0
-25 7 -26 9 -20 54 13 91 30 167 40 180 6 8 26 12 55 10 l46 -3 -1 -40z m151
36 c3 -6 -1 -43 -9 -83 -8 -40 -17 -89 -20 -110 -7 -38 -20 -48 -66 -48 -52 0
-61 9 -54 49 13 77 35 185 40 193 7 11 101 10 109 -1z m97 -48 c-1 -29 -8 -81
-15 -115 -13 -63 -13 -63 -50 -66 -44 -4 -45 -1 -19 128 20 102 26 112 60 108
26 -3 27 -5 24 -55z m132 48 c5 -7 -22 -77 -81 -218 -3 -7 -16 -13 -30 -13
-22 0 -25 3 -19 28 3 15 13 65 21 112 9 46 21 88 28 92 17 11 75 10 81 -1z
m57 -336 c132 -46 126 -72 -36 -150 -169 -81 -25 -75 -1864 -75 -1771 0 -1689
-2 -1822 52 -66 28 -167 87 -173 103 -8 21 9 35 70 60 l59 25 1861 0 c1633 0
1867 -2 1905 -15z m-6238 -211 l101 -26 131 16 c71 10 154 20 183 23 l54 6
196 -195 197 -196 150 -70 c83 -38 247 -116 365 -172 507 -242 452 -219 579
-235 64 -8 193 -24 286 -35 108 -14 179 -27 195 -37 14 -9 160 -112 325 -228
165 -117 310 -217 322 -223 13 -7 72 -12 147 -12 69 0 126 -2 126 -5 0 -3 22
-162 49 -353 51 -355 88 -648 116 -922 16 -146 16 -155 -1 -167 -14 -10 -91
-13 -332 -13 l-314 0 -543 -246 -542 -245 -344 136 c-189 75 -367 146 -396
156 l-52 20 -103 -31 c-484 -147 -501 -152 -753 -230 -331 -102 -304 -96 -334
-78 -14 8 -132 76 -261 150 -129 75 -302 175 -385 223 -82 48 -163 93 -180
100 -16 7 -122 22 -235 34 -113 12 -241 26 -285 31 -229 29 -329 40 -353 40
-26 0 -63 28 -395 305 -52 44 -98 87 -102 95 -3 8 -13 91 -22 185 -17 187 -22
854 -6 935 8 42 13 47 113 115 58 39 229 154 381 257 l277 186 238 52 c132 28
266 57 299 65 48 11 418 91 511 110 13 3 113 110 240 255 136 155 226 250 237
250 10 0 64 -12 120 -26z m3349 -169 c9 -38 33 -153 53 -255 19 -102 40 -207
45 -235 17 -87 58 -324 85 -495 14 -91 30 -190 35 -220 22 -129 56 -364 75
-510 8 -63 23 -185 34 -270 37 -286 40 -314 56 -475 8 -88 20 -200 25 -250 18
-164 29 -298 45 -510 8 -115 19 -271 25 -345 71 -962 71 -2626 0 -3205 -6 -44
-17 -150 -25 -235 -16 -166 -30 -294 -45 -430 -5 -47 -16 -159 -25 -250 -8
-91 -20 -194 -25 -230 -5 -36 -12 -103 -15 -149 -10 -123 -14 -131 -75 -131
-37 0 -52 4 -57 16 -3 9 -1 66 6 128 7 61 21 199 32 306 11 107 24 236 30 285
5 50 14 133 19 185 8 85 18 177 50 485 42 393 52 695 52 1480 0 641 -15 1199
-42 1585 -6 80 -17 249 -25 375 -9 127 -20 271 -25 320 -5 50 -14 149 -20 220
-34 387 -148 1312 -190 1540 -5 28 -21 127 -36 220 -31 200 -122 716 -164 929
-42 207 -43 198 27 194 l58 -3 17 -70z m300 56 c4 -3 14 -116 23 -251 8 -135
20 -306 25 -380 6 -74 15 -207 20 -295 6 -88 17 -252 25 -365 9 -113 20 -278
25 -367 5 -90 14 -220 19 -290 6 -71 15 -200 21 -288 5 -88 15 -216 20 -285
10 -120 43 -604 60 -890 11 -164 11 -576 1 -645 l-7 -50 -7 75 c-3 41 -9 134
-12 205 -12 290 -78 1086 -115 1395 -5 47 -15 128 -20 180 -6 52 -15 127 -20
165 -5 39 -14 111 -20 160 -10 85 -17 135 -55 395 -9 58 -22 150 -30 205 -27
188 -108 668 -144 850 -10 55 -27 141 -35 190 -9 50 -21 108 -26 130 -27 119
-32 147 -26 160 5 14 25 15 138 9 73 -4 136 -9 140 -13z m235 11 c9 -5 15 -99
22 -332 6 -179 15 -451 21 -605 5 -154 14 -431 20 -615 27 -880 33 -993 70
-1460 5 -69 14 -210 20 -315 6 -104 15 -275 21 -380 17 -294 23 -1595 10
-1973 -19 -555 -41 -930 -71 -1227 -10 -93 -29 -301 -55 -585 -8 -91 -23 -266
-35 -390 -30 -338 -42 -430 -54 -431 -39 -4 -150 5 -201 16 l-60 13 51 1 c37
1 54 5 58 16 3 9 10 64 16 123 12 126 37 372 50 492 5 47 18 177 29 290 11
113 25 243 31 290 5 47 17 159 25 250 9 91 18 181 21 200 3 19 9 159 14 310 5
151 14 390 21 530 16 350 17 2197 0 2415 -7 88 -16 223 -21 300 -18 280 -50
753 -60 890 -16 206 -49 686 -60 870 -5 88 -14 219 -20 290 -5 72 -17 236 -25
365 -21 317 -33 491 -41 577 l-6 72 73 4 c41 1 85 4 99 5 14 1 30 -2 37 -6z
m197 2 c15 -6 16 -173 15 -1798 -1 -1680 -5 -2077 -21 -1771 -18 345 -56 894
-63 905 -2 4 -11 220 -19 481 -9 261 -18 539 -21 619 -20 467 -48 1538 -42
1555 5 11 22 15 71 15 35 0 71 -3 80 -6z m663 -9 c5 -14 -2 -310 -27 -1120 -5
-154 -12 -347 -15 -430 -3 -82 -12 -361 -21 -619 -8 -258 -16 -472 -19 -475
-7 -12 -42 -516 -62 -891 -4 -75 -9 -116 -14 -105 -4 11 -8 835 -8 1832 -1
1440 2 1812 12 1816 6 3 43 6 80 6 52 1 69 -3 74 -14z m250 1 c3 -2 0 -67 -6
-143 -25 -307 -59 -809 -81 -1163 -12 -191 -46 -676 -60 -865 -11 -146 -44
-633 -60 -885 -5 -80 -14 -217 -21 -305 -17 -219 -16 -2076 0 -2425 7 -140 16
-374 21 -520 5 -146 16 -332 24 -415 9 -82 20 -193 26 -245 18 -188 50 -507
60 -585 18 -159 31 -274 50 -482 12 -117 23 -220 26 -228 4 -10 22 -15 58 -16
l51 -1 -60 -13 c-51 -11 -162 -20 -201 -16 -12 1 -27 114 -44 331 -6 74 -17
196 -25 270 -8 74 -19 191 -25 260 -5 69 -15 172 -20 230 -17 179 -39 420 -50
530 -13 143 -37 616 -51 1012 -13 380 -7 1692 10 1978 6 102 15 273 21 380 6
107 15 247 20 310 34 403 43 583 70 1450 6 179 15 456 20 615 6 160 15 436 21
615 7 223 13 327 21 331 12 8 198 3 205 -5z m308 2 c3 -7 -1 -44 -9 -83 -110
-549 -184 -981 -266 -1560 -76 -531 -126 -985 -171 -1535 -21 -263 -29 -372
-39 -570 -6 -113 -14 -239 -17 -280 -7 -74 -7 -74 -14 -30 -10 62 -10 485 1
655 14 231 48 730 60 880 17 226 50 708 60 870 5 83 16 245 24 360 9 116 20
282 26 370 5 88 14 219 20 290 5 72 16 240 25 374 8 135 18 248 23 253 4 4 45
9 92 11 47 1 107 4 133 5 30 1 49 -2 52 -10z m155 -10 c0 -13 -9 -68 -20 -123
-20 -99 -53 -272 -90 -475 -26 -140 -74 -420 -94 -550 -9 -58 -23 -145 -31
-195 -22 -135 -82 -567 -94 -675 -6 -52 -16 -129 -21 -170 -60 -463 -122
-1216 -155 -1880 -43 -853 -35 -2299 14 -2690 12 -92 18 -147 76 -715 8 -82
27 -260 41 -395 14 -135 26 -274 27 -310 l2 -65 -53 -3 c-63 -4 -67 2 -76 123
-4 44 -11 109 -16 145 -5 36 -16 137 -25 225 -20 215 -34 354 -45 450 -5 44
-16 150 -25 235 -8 85 -20 193 -25 240 -24 212 -30 308 -42 645 -27 792 -9
1888 43 2580 35 483 58 751 78 945 6 52 17 160 26 240 17 161 29 268 44 380
15 114 41 306 51 385 5 39 16 115 25 170 8 55 20 129 25 165 10 66 53 339 70
440 5 30 16 96 25 145 9 50 20 113 25 140 4 28 22 120 39 205 17 85 40 205 52
265 29 147 28 145 94 145 50 0 55 -2 55 -22z m-960 -4152 l0 -4164 -85 -7
c-47 -4 -119 -4 -160 0 l-75 7 0 4164 0 4164 160 0 160 0 0 -4164z m3798 3675
c2 -97 -1 -148 -9 -157 -9 -11 -57 -14 -240 -14 -217 0 -229 1 -239 20 -10 19
-13 277 -3 293 2 4 113 6 246 5 l242 -3 3 -144z m79 -313 c35 -34 63 -68 63
-75 0 -10 -80 -13 -390 -13 -301 0 -390 3 -390 12 0 7 28 41 62 75 l62 63 265
0 265 0 63 -62z m-1729 -176 c53 -38 181 -126 284 -196 154 -105 186 -131 178
-145 -4 -9 -85 -96 -179 -194 l-171 -178 0 -569 c0 -361 -4 -571 -10 -575 -9
-5 -87 33 -387 191 -56 30 -112 54 -125 54 -21 0 -184 -32 -303 -60 -22 -5
-118 -25 -213 -45 l-173 -36 -177 40 c-235 54 -222 50 -222 75 0 46 47 459 91
791 24 191 39 269 51 280 7 8 108 65 223 127 528 287 472 252 530 340 28 43
53 79 56 82 3 3 63 17 134 32 72 14 157 32 190 39 110 23 117 21 223 -53z
m1910 -15 c45 -46 79 -86 76 -90 -9 -9 -1159 -9 -1168 0 -3 4 31 44 76 90 l83
83 425 0 425 0 83 -83z m194 -204 c43 -43 78 -81 78 -85 0 -5 -351 -8 -780 -8
-674 0 -780 2 -773 14 4 8 39 46 77 85 l68 71 626 0 627 0 77 -77z m189 -199
c41 -41 75 -82 77 -90 3 -12 -125 -14 -968 -14 -843 0 -971 2 -968 14 2 8 36
49 77 90 l73 76 818 0 818 0 73 -76z m176 -185 c32 -33 62 -67 66 -75 7 -12
-149 -14 -1133 -14 -982 0 -1140 2 -1133 14 4 8 34 42 66 75 l57 61 1009 0
1009 0 59 -61z m131 -181 c13 -13 18 -429 6 -441 -4 -3 -32 7 -64 23 -329 166
-694 252 -1070 253 -256 0 -469 -29 -760 -105 -112 -29 -453 -151 -477 -170
-7 -6 -20 -8 -28 -4 -13 5 -15 38 -15 224 0 120 3 222 7 225 3 4 542 7 1198 7
913 0 1194 -3 1203 -12z m-982 -248 c274 -21 491 -73 740 -176 141 -58 244
-115 250 -139 3 -11 3 -72 2 -135 l-3 -115 -210 -8 c-115 -5 -283 -6 -372 -2
l-163 7 0 153 c0 148 -1 154 -22 169 -19 14 -78 16 -438 16 -360 0 -419 -2
-438 -16 -21 -15 -22 -21 -22 -168 0 -122 -3 -155 -14 -159 -19 -8 -713 0
-726 8 -6 4 -10 58 -10 130 0 147 -13 130 162 205 281 119 603 196 938 225
192 17 179 16 326 5z m154 -444 l0 -123 -102 -8 c-56 -4 -222 -4 -369 0 l-268
8 -3 76 c-2 42 -2 97 0 124 l3 47 370 0 369 0 0 -124z m1670 -1 c0 -93 -3
-125 -12 -125 -7 0 -170 -2 -361 -5 -262 -5 -352 -3 -363 6 -11 9 -14 39 -14
124 0 61 3 115 7 118 3 4 172 7 375 7 l368 0 0 -125z m-12255 -126 c88 -74
174 -144 190 -156 26 -19 83 -27 470 -69 l440 -47 160 -90 c88 -50 228 -130
310 -178 162 -94 215 -124 342 -195 l83 -45 117 34 c237 71 331 99 468 142
335 105 568 175 580 175 8 0 54 -16 102 -36 48 -20 126 -51 173 -69 47 -18
183 -71 303 -118 166 -65 224 -84 240 -78 12 5 164 73 337 151 444 200 485
218 580 262 152 71 126 67 488 70 l332 3 4 -30 c36 -241 113 -1551 93 -1571
-3 -3 -78 -14 -167 -24 -175 -20 -173 -21 -580 35 -111 15 -270 36 -525 70
-66 9 -149 20 -185 25 -95 13 -433 57 -600 79 l-145 19 -105 -33 c-58 -18
-125 -40 -150 -48 -92 -31 -422 -137 -610 -198 l-195 -62 -355 6 c-195 4 -501
10 -680 14 l-326 6 -149 -52 c-83 -29 -226 -80 -320 -112 l-170 -60 -19 23
c-27 33 -192 376 -261 542 -234 567 -365 1040 -465 1683 -13 80 -8 102 18 80
10 -7 89 -74 177 -148z m12461 -75 c131 -61 163 -75 269 -122 90 -40 154 -69
313 -143 l84 -38 -7 -33 c-104 -506 -318 -1114 -565 -1603 -101 -199 -194
-364 -206 -365 -7 0 -10 348 -8 1173 1 644 2 1173 3 1175 3 7 27 -2 117 -44z
m-3898 -100 c241 -125 335 -175 350 -186 9 -8 12 -168 12 -739 0 -400 -3 -730
-7 -732 -8 -5 -184 33 -499 109 -187 45 -194 46 -265 34 -160 -25 -271 -41
-439 -66 -219 -32 -260 -38 -388 -59 -56 -9 -110 -15 -119 -13 -14 2 -16 16
-14 88 4 235 54 1045 81 1310 5 52 12 132 16 176 3 45 10 88 14 95 7 10 28 9
107 -9 54 -12 144 -32 200 -44 l103 -23 182 38 c154 32 487 103 496 106 1 1
78 -38 170 -85z m670 -31 c3 -128 5 -125 -88 -119 -25 1 -66 3 -92 4 l-48 2 0
108 c0 60 3 112 7 116 4 3 54 5 112 4 l106 -3 3 -112z m277 4 c0 -60 -3 -111
-7 -113 -12 -8 -200 -14 -225 -8 -22 6 -23 10 -23 113 0 59 3 111 7 115 4 3
61 5 127 4 l121 -3 0 -108z m245 -2 l0 -115 -110 0 -110 0 0 115 0 115 110 0
110 0 0 -115z m308 1 c2 -81 -1 -111 -10 -117 -13 -8 -194 -6 -202 2 -7 7 -8
39 -7 137 l1 93 108 -3 107 -3 3 -109z m280 -3 l3 -112 -113 -3 c-62 -2 -121
-1 -130 1 -16 3 -18 16 -18 110 0 59 3 111 7 115 4 3 61 5 127 4 l121 -3 3
-112z m240 0 l-3 -118 -45 1 c-25 0 -73 1 -107 2 l-63 2 0 108 c0 60 3 112 7
115 3 4 53 7 110 7 l104 0 -3 -117z m312 2 l0 -115 -32 -1 c-18 -1 -53 -3 -78
-5 -25 -3 -60 -2 -77 1 l-33 6 0 114 0 115 110 0 110 0 0 -115z m278 -2 l3
-113 -126 0 -125 0 0 115 0 116 123 -3 122 -3 3 -112z m250 0 c1 -62 -1 -114
-5 -114 -4 -1 -52 -3 -105 -4 -73 -3 -100 0 -108 11 -8 9 -10 46 -6 116 3 57
5 104 5 106 1 1 49 1 109 0 l107 -3 3 -112z m302 2 l0 -115 -110 0 -110 0 0
108 c0 60 3 112 7 115 3 4 53 7 110 7 l103 0 0 -115z m280 1 c0 -99 -2 -115
-17 -121 -10 -3 -66 -3 -125 1 l-108 7 0 107 c0 58 3 110 7 113 3 4 60 7 125
7 l118 0 0 -114z m250 0 l0 -113 -37 -7 c-49 -8 -147 -8 -167 0 -13 5 -16 25
-16 120 l0 114 110 0 110 0 0 -114z m-3025 -271 l0 -120 -110 0 -110 0 -3 109
c-1 61 0 116 2 123 4 11 30 13 113 11 l108 -3 0 -120z m270 117 c6 -4 10 -57
10 -122 l0 -115 -127 -3 -128 -3 0 119 c0 65 3 122 7 125 9 9 226 9 238 -1z
m253 -119 l3 -123 -111 0 -110 0 0 118 c0 65 3 122 7 126 4 4 52 5 107 4 l101
-3 3 -122z m307 2 l0 -120 -107 -3 -108 -3 -2 33 c-3 71 -3 203 0 211 2 4 52
6 110 5 l107 -3 0 -120z m280 0 l0 -120 -125 0 -125 0 -3 109 c-1 61 0 116 2
123 4 11 33 13 128 11 l123 -3 0 -120z m245 0 l0 -125 -110 0 -110 0 0 118 c0
65 3 122 7 125 3 4 53 7 110 7 l103 0 0 -125z m308 -2 l3 -123 -111 0 -110 0
0 118 c0 65 3 122 7 126 4 4 52 5 107 4 l101 -3 3 -122z m280 0 l3 -123 -126
0 -125 0 0 118 c0 65 3 122 7 126 4 3 59 5 122 4 l116 -3 3 -122z m247 2 l0
-120 -104 -3 c-71 -2 -107 1 -112 9 -9 14 -12 216 -4 230 4 6 50 9 113 7 l107
-3 0 -120z m305 0 l0 -126 -107 3 -108 3 -3 109 c-1 61 0 116 2 123 4 10 33
13 111 13 l105 0 0 -125z m278 -3 l3 -123 -123 3 -123 3 -3 109 c-1 61 0 116
2 123 4 11 32 13 123 11 l118 -3 3 -123z m250 1 l3 -123 -111 0 -110 0 0 118
c0 65 3 122 7 126 4 4 52 5 107 4 l101 -3 3 -122z m-3020 -243 c5 -137 10
-131 -116 -128 l-107 3 -3 94 c-1 52 0 101 2 108 4 11 30 13 113 11 l108 -3 3
-85z m280 0 c5 -138 13 -130 -133 -130 l-125 0 0 110 0 111 128 -3 127 -3 3
-85z m242 -20 l0 -110 -110 0 -110 0 0 110 0 110 110 0 110 0 0 -110z m305 0
l0 -105 -107 -3 -108 -3 0 111 0 111 108 -3 107 -3 0 -105z m280 0 l0 -105
-125 0 -125 0 -3 94 c-1 52 0 101 2 108 4 11 32 13 128 11 l123 -3 0 -105z
m245 0 l0 -111 -107 3 -108 3 -3 94 c-1 52 -1 100 2 108 4 10 32 13 111 13
l105 0 0 -110z m310 0 l0 -110 -110 0 -110 0 0 110 0 110 110 0 110 0 0 -110z
m280 0 l0 -110 -125 0 -125 0 0 110 0 110 125 0 125 0 0 -110z m245 0 l0 -105
-104 -3 c-66 -2 -107 1 -111 8 -5 9 -6 61 -1 193 1 16 11 17 109 15 l107 -3 0
-105z m305 0 l0 -111 -107 3 -108 3 -3 94 c-1 52 -1 100 2 108 4 10 32 13 111
13 l105 0 0 -110z m280 0 l0 -111 -122 3 -123 3 -3 94 c-1 52 -1 100 2 108 4
10 35 13 126 13 l120 0 0 -110z m250 0 l0 -110 -110 0 -110 0 0 110 0 110 110
0 110 0 0 -110z m-3029 -207 c5 -5 8 -55 7 -114 l-3 -104 -110 0 -110 0 0 110
0 110 65 5 c89 7 139 5 151 -7z m278 1 c3 -3 4 -144 2 -211 -1 -10 -33 -13
-126 -13 l-125 0 0 114 0 115 38 3 c42 4 205 -3 211 -8z m522 6 l39 0 0 -115
0 -115 -109 0 -110 0 -5 43 c-3 23 -4 73 -3 112 2 69 3 70 32 77 17 4 50 5 74
2 24 -2 61 -4 82 -4z m314 -115 l0 -110 -125 0 -125 0 -3 108 c-3 129 -10 124
145 117 l108 -5 0 -110z m223 120 c21 -5 22 -9 22 -121 l0 -115 -107 3 -108 3
0 110 0 110 60 5 c33 3 71 6 85 7 14 1 35 0 48 -2z m290 -4 l42 -1 0 -115 0
-115 -110 0 -110 0 0 114 c0 130 -2 126 85 121 28 -2 69 -4 93 -4z m561 -5 c8
-9 11 -50 9 -117 l-3 -104 -110 0 -110 0 0 110 c0 108 0 109 25 116 48 13 177
10 189 -5z m579 6 c9 -2 12 -33 12 -117 l0 -116 -122 3 -123 3 0 110 0 110 60
5 c55 5 143 6 173 2z m215 2 l47 -6 0 -114 0 -114 -110 0 -110 0 0 114 c0 111
1 115 23 118 46 8 104 8 150 2z m-2453 -119 l0 -115 -110 0 -110 0 0 115 0
115 110 0 110 0 0 -115z m1418 3 l-3 -113 -122 -3 -123 -3 0 116 0 115 125 0
126 0 -3 -112z m552 -3 l0 -115 -110 0 -110 0 0 115 0 115 110 0 110 0 0 -115z
m-2495 -270 l0 -120 -110 0 -110 0 -3 109 c-1 61 0 116 2 123 4 11 30 13 113
11 l108 -3 0 -120z m280 93 c3 -18 5 -73 3 -123 l-3 -90 -125 0 -125 0 -3 123
-3 122 125 0 125 0 6 -32z m245 -93 l0 -125 -110 0 -110 0 0 125 0 125 110 0
110 0 0 -125z m305 0 l0 -120 -107 -3 -108 -3 0 126 0 126 108 -3 107 -3 0
-120z m280 0 l0 -120 -125 0 -125 0 -3 109 c-1 61 0 116 2 123 4 11 33 13 128
11 l123 -3 0 -120z m245 0 l0 -126 -107 3 -108 3 -3 109 c-1 61 0 116 2 123 4
10 33 13 111 13 l105 0 0 -125z m310 0 l0 -125 -110 0 -110 0 0 125 0 125 110
0 110 0 0 -125z m275 0 l0 -120 -122 -3 -123 -3 0 119 c0 65 3 122 7 126 4 3
59 5 122 4 l116 -3 0 -120z m250 0 l0 -120 -107 -3 c-98 -2 -108 -1 -108 15 0
10 -2 64 -3 121 -2 57 -1 105 2 108 3 2 52 3 110 2 l106 -3 0 -120z m305 0 l0
-126 -107 3 -108 3 -3 109 c-1 61 0 116 2 123 4 10 33 13 111 13 l105 0 0
-125z m278 3 l-3 -123 -120 0 -120 0 -3 109 c-1 61 0 116 2 123 4 10 36 13
126 13 l121 0 -3 -122z m250 -6 l3 -123 -108 3 -108 3 -3 123 -3 123 108 -3
108 -3 3 -123z m-3023 -282 l0 -125 -110 0 -110 0 -3 114 c-1 63 0 121 2 128
4 11 30 13 113 11 l108 -3 0 -125z m280 120 c3 -5 3 -63 -1 -130 l-7 -120
-124 0 -123 0 0 130 0 130 124 0 c69 0 127 -4 131 -10z m245 -120 l0 -130
-110 0 -110 0 0 130 0 130 110 0 110 0 0 -130z m310 0 l0 -130 -110 0 -110 0
0 130 0 130 110 0 110 0 0 -130z m278 3 l-3 -128 -125 0 -125 0 -3 114 c-1 63
0 121 2 128 4 10 37 13 131 13 l126 0 -3 -127z m242 -3 l0 -131 -107 3 -108 3
-3 128 -3 127 111 0 110 0 0 -130z m310 0 l0 -130 -110 0 -110 0 0 130 0 130
110 0 110 0 0 -130z m280 0 l0 -130 -125 0 -125 0 0 130 0 130 125 0 125 0 0
-130z m245 0 l0 -125 -110 0 -110 0 0 105 c-1 165 -11 151 114 148 l106 -3 0
-125z m305 0 l0 -130 -110 0 -110 0 0 130 0 130 110 0 110 0 0 -130z m280 0
l0 -131 -122 3 -123 3 -3 128 -3 127 126 0 125 0 0 -130z m250 0 l0 -130 -110
0 -110 0 0 130 0 130 110 0 110 0 0 -130z m-8535 -130 c39 -5 156 -21 260 -35
105 -14 278 -37 385 -51 107 -14 224 -29 260 -34 36 -5 117 -16 180 -24 63 -9
185 -25 270 -36 412 -55 387 -53 520 -40 69 7 144 15 167 20 23 4 47 3 55 -1
11 -7 13 -163 13 -861 -1 -814 -8 -1089 -35 -1343 -12 -117 -55 -527 -85 -825
-13 -129 -29 -278 -34 -330 -6 -52 -17 -160 -26 -238 -8 -79 -18 -148 -21
-154 -3 -5 -16 -7 -28 -4 -11 3 -70 12 -131 21 -254 38 -653 127 -895 202
-778 238 -1446 572 -2090 1046 -538 396 -1067 929 -1449 1461 -199 277 -459
692 -443 708 4 4 100 39 212 79 113 39 249 86 302 105 l98 34 502 -10 c277 -5
578 -12 669 -16 154 -6 171 -5 235 15 38 12 188 61 334 108 146 46 315 101
375 120 61 19 148 48 195 63 95 32 105 33 205 20z m4656 -60 c73 -17 172 -40
219 -51 219 -52 296 -70 313 -75 15 -5 17 -22 17 -178 l0 -173 -156 -7 c-86
-4 -260 -4 -388 -1 -157 5 -240 4 -258 -4 l-28 -11 0 -1622 c0 -893 -4 -1628
-8 -1634 -9 -15 -21 -18 -192 -54 -211 -45 -503 -91 -513 -81 -5 5 -15 71 -22
147 -8 77 -19 184 -25 239 -6 55 -22 206 -35 335 -51 503 -75 729 -85 815 -27
239 -34 523 -35 1353 0 976 -8 884 83 895 26 3 124 18 217 32 444 67 515 78
590 89 123 20 163 18 306 -14z m854 -95 l0 -120 -110 0 -110 0 -3 109 c-1 61
0 116 2 123 4 11 30 13 113 11 l108 -3 0 -120z m276 108 c0 -10 1 -65 2 -123
l2 -105 -127 -3 -128 -3 0 126 0 125 125 0 c112 0 125 -2 126 -17z m249 -108
l0 -125 -110 0 -110 0 0 125 0 125 110 0 110 0 0 -125z m305 0 l0 -120 -107
-3 -106 -3 -4 68 c-1 37 -2 94 0 126 l3 58 107 -3 107 -3 0 -120z m280 0 l0
-120 -125 0 -125 0 -3 109 c-1 61 0 116 2 123 4 11 33 13 128 11 l123 -3 0
-120z m245 0 l0 -126 -107 3 -108 3 -3 109 c-1 61 0 116 2 123 4 10 33 13 111
13 l105 0 0 -125z m310 0 l0 -125 -110 0 -110 0 0 125 0 125 110 0 110 0 0
-125z m275 0 l0 -120 -122 -3 -123 -3 0 119 c0 65 3 122 7 126 4 3 59 5 122 4
l116 -3 0 -120z m250 0 l0 -120 -106 -3 -106 -3 -6 68 c-9 90 -9 168 0 177 4
3 54 5 112 4 l106 -3 0 -120z m305 0 l0 -126 -107 3 -108 3 -3 109 c-1 61 0
116 2 123 4 10 33 13 111 13 l105 0 0 -125z m280 0 l0 -126 -122 3 -123 3 -3
109 c-1 61 0 116 2 123 4 10 36 13 126 13 l120 0 0 -125z m248 -3 l3 -123
-108 3 -108 3 -3 123 -3 123 108 -3 108 -3 3 -123z m-3020 -263 c3 -136 5
-135 -126 -123 l-97 9 -3 99 c-1 55 0 106 2 113 4 11 30 13 113 11 l108 -3 3
-106z m280 2 c1 -57 -1 -108 -6 -113 -12 -12 -191 -23 -226 -14 l-26 6 0 115
0 116 128 -3 127 -3 3 -104z m242 -6 l0 -115 -110 0 -110 0 0 115 0 115 110 0
110 0 0 -115z m310 1 c0 -133 6 -126 -110 -126 -116 0 -110 -7 -110 126 l0
114 110 0 110 0 0 -114z m278 2 l-3 -113 -115 -6 c-65 -3 -120 -1 -127 4 -14
10 -19 208 -6 220 3 4 62 7 130 7 l124 0 -3 -112z m242 -3 c0 -90 -3 -117 -14
-121 -8 -3 -56 -2 -108 3 l-93 8 -3 113 -3 112 111 0 110 0 0 -115z m310 1 l0
-113 -52 -7 c-67 -8 -132 -8 -152 0 -13 5 -16 25 -16 120 l0 114 110 0 110 0
0 -114z m280 -1 l0 -115 -125 0 -125 0 0 115 0 115 125 0 125 0 0 -115z m248
6 c2 -69 -1 -108 -9 -117 -9 -11 -34 -14 -108 -12 l-96 3 -5 80 c-3 44 -3 97
-1 118 l3 38 107 -3 106 -3 3 -104z m302 -6 l0 -116 -107 3 -108 3 -3 99 c-1
55 0 106 2 113 4 10 33 13 111 13 l105 0 0 -115z m280 0 c0 -96 -3 -117 -16
-122 -9 -3 -64 -2 -122 3 l-107 9 -3 113 -3 112 126 0 125 0 0 -115z m250 1
l0 -115 -52 -6 c-29 -4 -78 -5 -108 -3 l-55 3 -3 118 -3 117 111 0 110 0 0
-114z m-3865 -326 l0 -115 -105 0 -105 0 -3 104 c-1 58 0 111 2 118 4 11 29
13 108 11 l103 -3 0 -115z m280 0 l0 -115 -120 0 -120 0 -3 118 -3 118 123 -3
123 -3 0 -115z m253 6 c2 -81 -1 -112 -10 -118 -15 -9 -179 -11 -202 -2 -13 5
-16 25 -16 113 0 59 3 111 7 115 4 3 54 5 112 4 l106 -3 3 -109z m310 -3 c3
-132 11 -126 -133 -121 l-90 3 -3 104 c-1 58 0 111 2 118 4 11 30 13 113 11
l108 -3 3 -112z m273 105 c4 -84 -4 -214 -14 -220 -7 -5 -61 -7 -122 -6 l-110
3 -3 118 -3 117 126 0 c93 0 125 -3 126 -12z m249 -102 l0 -114 -26 -6 c-29
-8 -149 -7 -176 1 -16 4 -18 18 -18 119 l0 114 110 0 110 0 0 -114z m308 0 c2
-81 -1 -112 -10 -118 -22 -13 -205 -10 -210 5 -8 21 -10 186 -3 207 6 19 13
20 113 18 l107 -3 3 -109z m280 0 c2 -81 -1 -112 -10 -118 -15 -9 -209 -11
-232 -2 -13 5 -16 25 -16 113 0 59 3 111 7 115 4 3 61 5 127 4 l121 -3 3 -109z
m240 -3 l-3 -118 -85 -3 c-136 -5 -130 -10 -130 117 0 59 3 111 7 114 3 4 53
7 110 7 l104 0 -3 -117z m312 3 c0 -85 -3 -115 -13 -119 -8 -3 -56 -4 -108 -4
l-94 2 -3 118 -3 117 111 0 110 0 0 -114z m278 -3 c3 -133 12 -125 -143 -121
l-100 3 -3 118 -3 118 123 -3 123 -3 3 -112z m250 3 c2 -81 -1 -112 -10 -118
-15 -9 -179 -11 -202 -2 -13 5 -16 25 -16 113 0 59 3 111 7 115 4 3 54 5 112
4 l106 -3 3 -109z m300 -3 l-3 -118 -85 -3 c-136 -5 -130 -10 -130 117 0 59 3
111 7 114 3 4 53 7 110 7 l104 0 -3 -117z m280 0 l-3 -118 -120 0 -120 0 -3
104 c-1 58 0 111 2 118 4 10 35 13 126 13 l121 0 -3 -117z m250 21 c3 -85 1
-92 -23 -118 -24 -26 -29 -27 -107 -24 l-83 3 -3 118 -3 118 108 -3 108 -3 3
-91z m-3860 -291 l3 -123 -111 0 -110 0 0 118 c0 65 3 122 7 126 4 4 52 5 107
4 l101 -3 3 -122z m277 2 l0 -120 -122 -3 -123 -3 0 119 c0 65 3 122 7 126 4
3 59 5 122 4 l116 -3 0 -120z m253 -2 l3 -123 -110 0 -110 0 -3 111 c-2 61 1
117 5 125 7 12 29 14 110 12 l102 -3 3 -122z m301 113 c8 -9 11 -51 9 -122
l-3 -109 -110 0 -110 0 -3 109 c-1 61 0 116 2 123 8 19 199 18 215 -1z m280 0
c8 -9 11 -51 9 -122 l-3 -109 -127 -3 -128 -3 0 119 c0 65 3 122 7 125 3 4 57
7 118 7 84 0 115 -4 124 -14z m249 -113 l3 -123 -111 0 -110 0 0 118 c0 65 3
122 7 126 4 4 52 5 107 4 l101 -3 3 -122z m296 121 c13 -5 16 -26 16 -125 l0
-119 -110 0 -110 0 0 118 c0 65 3 122 7 125 8 9 176 9 197 1z m294 -122 l3
-123 -128 3 -128 3 -3 114 c-2 85 1 117 10 123 7 4 65 7 128 6 l115 -3 3 -123z
m240 1 l3 -123 -111 0 -110 0 0 118 c0 65 3 122 7 126 4 4 52 5 107 4 l101 -3
3 -122z m310 0 l3 -123 -111 0 -110 0 0 118 c0 65 3 122 7 126 4 4 52 5 107 4
l101 -3 3 -122z m280 0 l3 -123 -126 0 -125 0 0 118 c0 65 3 122 7 126 4 3 59
5 122 4 l116 -3 3 -122z m240 119 c9 -6 12 -38 10 -123 l-3 -114 -107 -3 -107
-3 -3 103 c-5 152 -7 148 104 148 51 0 99 -4 106 -8z m312 -117 l0 -125 -110
0 -110 0 0 118 c0 65 3 122 7 125 3 4 53 7 110 7 l103 0 0 -125z m278 -2 l3
-123 -126 0 -125 0 0 118 c0 65 3 122 7 126 4 3 59 5 122 4 l116 -3 3 -122z
m186 119 c6 -10 -134 -222 -146 -222 -10 0 -11 214 -1 223 9 10 141 9 147 -1z
m-3796 -379 l-3 -108 -105 0 -105 0 -3 94 c-1 52 -1 100 2 108 4 10 33 13 111
13 l106 0 -3 -107z m277 -3 l0 -105 -122 -3 -123 -3 0 111 0 111 123 -3 122
-3 0 -105z m250 0 l0 -105 -110 0 -110 0 -1 88 c-3 136 -10 128 115 125 l106
-3 0 -105z m310 0 l0 -105 -110 0 -110 0 -3 94 c-1 52 0 101 2 108 4 11 30 13
113 11 l108 -3 0 -105z m278 103 c3 -5 2 -54 -1 -110 l-5 -103 -123 0 -124 0
0 103 c0 57 3 107 7 110 9 10 241 9 246 0z m247 -103 l0 -110 -110 0 -110 0 0
110 0 110 110 0 110 0 0 -110z m308 -2 l3 -108 -111 0 -110 0 0 110 0 111 108
-3 107 -3 3 -107z m277 2 l0 -105 -125 0 -125 0 -3 94 c-1 52 0 101 2 108 4
11 32 13 128 11 l123 -3 0 -105z m245 0 l0 -111 -107 3 -108 3 -3 94 c-1 52
-1 100 2 108 4 10 32 13 111 13 l105 0 0 -110z m310 0 l0 -110 -110 0 -110 0
0 110 0 110 110 0 110 0 0 -110z m275 0 l0 -105 -122 -3 -123 -3 0 111 0 111
123 -3 122 -3 0 -105z m250 0 l0 -105 -110 0 -110 0 -3 55 c-2 30 -1 79 3 108
l7 53 106 -3 107 -3 0 -105z m305 0 l0 -111 -107 3 -108 3 -3 94 c-1 52 -1
100 2 108 4 10 32 13 111 13 l105 0 0 -110z m274 102 c2 -4 -29 -54 -71 -110
l-75 -103 -47 3 -46 3 -3 94 c-1 52 -1 100 2 108 4 10 34 13 120 13 63 0 117
-4 120 -8z m-3336 -301 c9 -1 12 -31 12 -116 l0 -115 -125 0 -125 0 0 114 c0
82 3 116 13 119 10 4 182 2 225 -2z m260 -118 l3 -113 -111 0 -110 0 0 38 c0
20 -3 70 -7 109 -7 89 -5 90 129 83 l93 -5 3 -112z m303 110 c6 -6 9 -52 7
-114 l-3 -104 -110 0 -110 0 0 110 0 110 50 6 c68 9 154 4 166 -8z m277 3 c4
-2 7 -53 7 -113 l0 -108 -127 -3 -128 -3 0 115 c0 82 4 116 13 119 15 6 224 0
235 -7z m550 7 c8 -4 12 -37 12 -119 l0 -114 -110 0 -110 0 0 114 0 115 28 3
c42 6 165 6 180 1z m515 0 c15 -4 17 -18 17 -119 l0 -114 -110 0 -111 0 3 113
3 112 65 6 c84 7 111 7 133 2z m327 -119 l0 -114 -110 0 -110 0 0 114 0 115
38 3 c20 2 70 2 110 0 l72 -4 0 -114z m520 110 c7 -7 10 -49 8 -115 l-3 -104
-107 -3 -108 -3 0 28 c-1 15 -3 63 -6 106 -3 46 -1 84 5 91 13 15 196 15 211
0z m-3020 -109 l0 -115 -110 0 -110 0 0 108 c0 60 3 112 7 115 3 4 53 7 110 7
l103 0 0 -115z m1360 0 l0 -115 -110 0 -110 0 0 115 0 115 110 0 110 0 0 -115z
m588 -3 l3 -113 -128 3 -128 3 -3 99 c-1 55 0 106 2 113 4 11 32 13 128 11
l123 -3 3 -113z m832 3 l0 -115 -125 0 -125 0 0 115 0 115 125 0 125 0 0 -115z
m550 79 c0 -30 -11 -49 -67 -115 -65 -75 -70 -78 -110 -79 l-43 0 0 115 0 115
110 0 110 0 0 -36z m-5462 -1347 l-3 -1142 -43 -3 -43 -3 4 693 c3 550 7 726
20 853 17 170 47 616 48 725 0 51 2 60 10 42 5 -15 8 -469 7 -1165z m512 898
c6 -115 21 -322 33 -460 20 -227 22 -312 22 -915 l0 -665 -40 0 -40 0 -3 1125
c-1 619 1 1141 5 1160 l7 35 3 -35 c1 -19 7 -129 13 -245z m1620 100 l0 -126
-107 3 -108 3 -3 109 c-1 61 0 116 2 123 4 10 33 13 111 13 l105 0 0 -125z
m275 0 l0 -120 -122 -3 -123 -3 0 126 0 126 123 -3 122 -3 0 -120z m250 0 l0
-120 -104 -3 c-57 -1 -108 1 -112 5 -4 4 -5 61 -2 126 l6 118 106 -3 106 -3 0
-120z m310 0 l0 -120 -110 0 -110 0 -3 109 c-1 61 0 116 2 123 4 11 30 13 113
11 l108 -3 0 -120z m281 21 c1 -159 13 -146 -132 -146 l-124 0 0 118 c0 65 3
122 7 126 4 3 61 5 127 4 l121 -3 1 -99z m244 -21 l0 -125 -110 0 -110 0 0
125 0 125 110 0 110 0 0 -125z m308 -2 l3 -123 -111 0 -110 0 0 125 0 126 108
-3 107 -3 3 -122z m277 2 l0 -120 -125 0 -125 0 -3 109 c-1 61 0 116 2 123 4
11 33 13 128 11 l123 -3 0 -120z m245 0 l0 -126 -107 3 -108 3 -3 109 c-1 61
0 116 2 123 4 10 33 13 111 13 l105 0 0 -125z m310 0 l0 -125 -110 0 -110 0 0
125 0 125 110 0 110 0 0 -125z m275 0 l0 -120 -122 -3 -123 -3 0 126 0 126
123 -3 122 -3 0 -120z m253 57 c3 -69 -11 -102 -66 -155 -27 -26 -35 -28 -93
-25 l-64 3 2 120 c2 66 3 121 3 123 0 1 48 1 108 0 l107 -3 3 -63z m-3028
-322 l0 -111 -107 3 -108 3 -3 108 -3 107 111 0 110 0 0 -110z m278 3 l-3
-108 -122 -3 -123 -3 0 111 0 110 125 0 126 0 -3 -107z m247 -3 l0 -105 -104
-3 c-77 -2 -107 1 -113 10 -9 16 -11 192 -1 202 4 3 54 5 112 4 l106 -3 0
-105z m310 0 l0 -105 -110 0 -110 0 -3 94 c-1 52 0 101 2 108 4 11 30 13 113
11 l108 -3 0 -105z m277 16 c2 -51 2 -101 0 -110 -3 -14 -21 -16 -128 -16
l-124 0 0 110 0 110 124 0 125 0 3 -94z m248 -16 l0 -110 -110 0 -110 0 0 110
0 110 110 0 110 0 0 -110z m308 3 l-3 -108 -107 -3 -108 -3 0 111 0 110 110 0
111 0 -3 -107z m277 -3 l0 -105 -125 0 -125 0 -3 94 c-1 52 0 101 2 108 4 11
32 13 128 11 l123 -3 0 -105z m245 0 l0 -111 -107 3 -108 3 -3 94 c-1 52 -1
100 2 108 4 10 32 13 111 13 l105 0 0 -110z m310 0 l0 -110 -110 0 -110 0 0
110 0 110 110 0 110 0 0 -110z m280 52 c0 -56 -1 -59 -53 -110 l-54 -53 -69 3
-69 3 -3 108 -3 107 126 0 125 0 0 -58z m-2255 -867 l0 -620 -38 -18 c-20 -9
-125 -46 -232 -82 -185 -62 -200 -65 -289 -65 -53 0 -98 -4 -101 -10 -3 -5 3
-10 14 -10 11 0 23 -5 26 -10 7 -12 -30 -27 -86 -36 l-39 -7 0 735 c0 404 3
738 7 741 4 4 171 6 372 5 l366 -3 0 -620z m304 611 c8 -9 11 -50 9 -117 l-3
-104 -110 0 -110 0 -3 95 c-4 147 -10 140 107 140 72 0 102 -4 110 -14z m280
0 c8 -9 11 -50 9 -117 l-3 -104 -127 -3 -128 -3 0 114 c0 63 3 117 7 120 3 4
57 7 118 7 84 0 115 -4 124 -14z m249 -108 l3 -118 -111 0 -110 0 0 113 c0 63
3 117 7 121 4 4 52 5 107 4 l101 -3 3 -117z m830 -44 l2 -161 -140 -99 -140
-99 -185 -5 c-222 -6 -253 -24 -48 -28 76 -1 144 -5 152 -8 10 -3 -12 -22 -60
-52 -133 -85 -297 -182 -308 -182 -7 0 -11 33 -12 98 0 53 0 126 -1 162 0 36
0 172 1 303 l1 237 368 -2 367 -3 3 -161z m310 125 c3 -34 -1 -38 -97 -115
-56 -43 -105 -80 -111 -82 -11 -4 -14 220 -3 232 4 4 52 5 107 4 l101 -3 3
-36z m-1660 -362 l3 -128 -113 3 -113 3 -3 114 c-1 63 0 121 2 128 4 11 30 13
113 11 l108 -3 3 -128z m274 126 c2 -5 2 -63 0 -130 l-3 -123 -125 0 -124 0 0
130 0 130 124 0 c69 0 126 -3 128 -7z m248 -123 l0 -130 -110 0 -110 0 0 130
0 130 110 0 110 0 0 -130z m-522 -278 c4 -156 6 -153 -121 -150 l-102 3 -3
119 c-1 66 0 126 2 133 4 11 30 13 113 11 l108 -3 3 -113z m276 66 c11 -95 7
-195 -8 -207 -9 -8 -52 -11 -127 -9 l-114 3 -3 133 -3 132 124 0 124 0 7 -52z
m244 -80 l-3 -133 -105 0 -105 0 -3 133 -3 132 111 0 111 0 -3 -132z m-530
-170 c13 -13 17 -212 6 -242 -9 -24 -209 -24 -218 0 -8 21 -8 239 1 247 12 12
198 8 211 -5z m280 0 c16 -16 15 -100 0 -121 -15 -18 -210 -117 -233 -117 -12
0 -15 20 -15 118 0 65 3 122 7 125 12 13 228 8 241 -5z m233 -2 c1 -10 -169
-105 -188 -106 -14 0 -19 101 -6 114 10 10 193 3 194 -8z m-3591 -427 c0 -303
-3 -391 -12 -394 -7 -3 -26 -1 -43 3 -27 8 -30 13 -28 43 2 30 16 179 44 459
5 52 12 139 15 192 14 202 24 73 24 -303z m759 116 c6 -60 18 -182 26 -270 24
-247 25 -227 -10 -237 -16 -4 -36 -6 -42 -3 -10 3 -13 91 -13 393 0 379 8 495
22 315 4 -48 11 -137 17 -198z"/>
<path d="M2925 7918 c-55 -44 -145 -118 -200 -163 -55 -45 -109 -87 -120 -92
-11 -6 -173 -41 -360 -78 -540 -105 -564 -111 -588 -132 -12 -11 -103 -87
-202 -169 -99 -82 -185 -153 -191 -159 -6 -5 -70 -59 -143 -119 -119 -99 -146
-126 -123 -126 8 0 397 319 604 496 l88 74 422 84 c233 46 440 87 461 90 27 5
69 32 150 98 62 50 158 127 214 172 56 44 104 87 107 94 12 28 -25 7 -119 -70z"/>
<path d="M4096 7988 c4 -7 29 -35 54 -63 26 -27 125 -135 221 -240 312 -341
321 -350 397 -375 170 -55 638 -200 649 -200 29 0 10 20 -29 30 -22 7 -80 24
-127 40 -94 30 -364 115 -479 150 -70 22 -75 26 -170 129 -53 58 -107 117
-120 131 -13 14 -103 112 -200 218 -97 105 -182 192 -190 192 -8 0 -10 -5 -6
-12z"/>
<path d="M5786 7202 c-7 -12 416 -651 432 -652 6 0 12 2 12 5 0 7 -429 655
-434 655 -3 0 -7 -4 -10 -8z"/>
<path d="M9200 1935 c0 -13 38 -15 285 -15 247 0 285 2 285 15 0 13 -38 15
-285 15 -247 0 -285 -2 -285 -15z"/>
<path d="M9197 1654 c-20 -20 31 -24 289 -24 246 0 284 2 284 15 0 13 -38 15
-283 15 -156 0 -287 -3 -290 -6z"/>
<path d="M10863 1938 c3 -10 69 -13 287 -13 218 0 284 3 288 13 3 9 -59 12
-288 12 -229 0 -291 -3 -287 -12z"/>
</g>
</svg>
